<?xml version="1.0" encoding="UTF-8"?><svg id="Layer_2" xmlns="http://www.w3.org/2000/svg" viewBox="0 0 128 99.32"><defs><style>.cls-1{fill:#fff;stroke-width:0px;}</style></defs><g id="Layer_1-2"><path class="cls-1" d="M63.99,66.37c-.01-.32-.02-.64-.02-.95,0-10.41,8.43-18.83,18.83-18.83,6.98,0,13.07,3.79,16.33,9.44,1.79-1.2,3.96-1.91,6.27-1.91,6.24,0,11.3,5.06,11.3,11.3,0,1.44-.27,2.81-.75,4.07,6.87,1.39,12.05,7.47,12.05,14.76,0,8.32-6.75,15.07-15.07,15.07h-43.32c-9.36,0-16.95-7.59-16.95-16.95,0-7.39,4.73-13.68,11.32-16Z"/><path class="cls-1" d="M61.15,64.73c-.16.12-.31.25-.47.37.16-.06.31-.13.47-.19,0-.06,0-.12,0-.19Z"/><path class="cls-1" d="M55.31,31.46c-5.4-3.12-12.06-3.12-17.47,0s-8.73,8.89-8.73,15.13,3.33,12.01,8.73,15.13c5.4,3.12,12.06,3.12,17.47,0,5.4-3.12,8.73-8.89,8.73-15.13s-3.33-12.01-8.73-15.13Z"/><path class="cls-1" d="M49.83,80.92c0-5.25,2.39-9.93,6.13-13.04-6.74,2.97-14.56,2.6-21.02-1.13-7.21-4.16-11.64-11.85-11.64-20.17s4.44-16.01,11.64-20.17,16.08-4.16,23.29,0c7.21,4.16,11.64,11.85,11.64,20.17,0,.51-.02,1.03-.05,1.54,2.93-1.88,6.41-2.98,10.15-2.98.76,0,1.51.05,2.25.14l10.43-15.14c.56-.82.67-1.86.29-2.77-.38-.91-1.2-1.56-2.16-1.75l-19.63-3.6-3.62-19.63c-.18-.96-.84-1.78-1.75-2.16-.91-.38-1.95-.27-2.77.29l-16.43,11.33L30.15.52c-.82-.56-1.86-.67-2.77-.29-.91.38-1.56,1.2-1.75,2.16l-3.62,19.63-19.63,3.62c-.96.18-1.78.84-2.16,1.75-.38.91-.27,1.95.29,2.77l11.33,16.43L.52,63.01c-.56.82-.67,1.86-.29,2.77.38.91,1.2,1.57,2.16,1.75l19.63,3.62,3.62,19.63c.18.96.84,1.78,1.75,2.16.91.38,1.95.27,2.77-.29l16.43-11.33,3.5,2.42c-.15-.92-.25-1.85-.25-2.81Z"/></g>

<style>
        path { fill: #000; }
        @media (prefers-color-scheme: dark) {
            path { fill: #FFF; }
        }
    </style>

</svg>