<?xml version="1.0" encoding="UTF-8"?><svg id="Layer_2" xmlns="http://www.w3.org/2000/svg" xmlns:xlink="http://www.w3.org/1999/xlink" viewBox="0 0 456 158.94"><defs><style>.cls-1{fill:url(#linear-gradient);}.cls-1,.cls-2,.cls-3{stroke-width:0px;}.cls-3{fill:#f7931e;}.cls-4{stroke:#f7931e;stroke-linecap:round;stroke-linejoin:round;}.cls-4,.cls-5,.cls-6{fill:none;stroke-width:2px;}.cls-5{stroke:#b3b3b3;}.cls-5,.cls-6{stroke-miterlimit:10;}.cls-6{stroke:#f15a24;}</style><linearGradient id="linear-gradient" x1="162.66" y1="133.53" x2="104.5" y2="53.25" gradientUnits="userSpaceOnUse"><stop offset="0" stop-color="#fff" stop-opacity="0"/><stop offset=".1" stop-color="#fffaf6" stop-opacity=".03"/><stop offset=".25" stop-color="#ffefdf" stop-opacity=".11"/><stop offset=".44" stop-color="#ffddb8" stop-opacity=".25"/><stop offset=".66" stop-color="#ffc383" stop-opacity=".44"/><stop offset=".89" stop-color="#ffa340" stop-opacity=".68"/><stop offset="1" stop-color="#ff931e" stop-opacity=".8"/></linearGradient></defs><g id="Layer_1-2"><line class="cls-4" x1="206" y1="1" x2="206" y2="7"/><line class="cls-4" x1="215" y1="11" x2="220" y2="6"/><line class="cls-4" x1="198" y1="12" x2="192" y2="6"/><path class="cls-1" d="M28,121h178V20S94,29,28,121Z"/><path class="cls-6" d="M24,125S76,37,199,21s217,62,238,104"/><circle class="cls-3" cx="206" cy="20" r="10"/><line class="cls-4" x1="214" y1="28" x2="219" y2="33"/><line class="cls-4" x1="206" y1="32" x2="206" y2="39"/><line class="cls-4" x1="197" y1="28" x2="191" y2="35"/><line class="cls-4" x1="194" y1="20" x2="188" y2="20"/><line class="cls-5" y1="125" x2="456" y2="125"/><circle class="cls-3" cx="24" cy="125" r="4"/><circle class="cls-3" cx="435" cy="125" r="4"/><path class="cls-2" d="M31.94,147.2h-4.96l-.5,3.34c.3-.04.58-.08,1.06-.08,1,0,2,.22,2.8.7,1.02.58,1.86,1.7,1.86,3.34,0,2.54-2.02,4.44-4.84,4.44-1.42,0-2.62-.4-3.24-.8l.44-1.34c.54.32,1.6.72,2.78.72,1.66,0,3.08-1.08,3.08-2.82-.02-1.68-1.14-2.88-3.74-2.88-.74,0-1.32.08-1.8.14l.84-6.24h6.22v1.48Z"/><path class="cls-2" d="M34.58,150.64c0-.74.5-1.26,1.2-1.26s1.16.52,1.18,1.26c0,.7-.46,1.24-1.2,1.24-.7,0-1.18-.54-1.18-1.24ZM34.58,157.7c0-.74.5-1.26,1.2-1.26s1.16.52,1.18,1.26c0,.7-.46,1.24-1.2,1.24-.7,0-1.18-.54-1.18-1.24Z"/><path class="cls-2" d="M38.58,158.72v-1.08l1.38-1.34c3.32-3.16,4.82-4.84,4.84-6.8,0-1.32-.64-2.54-2.58-2.54-1.18,0-2.16.6-2.76,1.1l-.56-1.24c.9-.76,2.18-1.32,3.68-1.32,2.8,0,3.98,1.92,3.98,3.78,0,2.4-1.74,4.34-4.48,6.98l-1.04.96v.04h5.84v1.46h-8.3Z"/><path class="cls-2" d="M56.6,147.2h-4.96l-.5,3.34c.3-.04.58-.08,1.06-.08,1,0,2,.22,2.8.7,1.02.58,1.86,1.7,1.86,3.34,0,2.54-2.02,4.44-4.84,4.44-1.42,0-2.62-.4-3.24-.8l.44-1.34c.54.32,1.6.72,2.78.72,1.66,0,3.08-1.08,3.08-2.82-.02-1.68-1.14-2.88-3.74-2.88-.74,0-1.32.08-1.8.14l.84-6.24h6.22v1.48Z"/><path class="cls-2" d="M63.72,156.6c.78.48,1.92.88,3.12.88,1.78,0,2.82-.94,2.82-2.3,0-1.26-.72-1.98-2.54-2.68-2.2-.78-3.56-1.92-3.56-3.82,0-2.1,1.74-3.66,4.36-3.66,1.38,0,2.38.32,2.98.66l-.48,1.42c-.44-.24-1.34-.64-2.56-.64-1.84,0-2.54,1.1-2.54,2.02,0,1.26.82,1.88,2.68,2.6,2.28.88,3.44,1.98,3.44,3.96,0,2.08-1.54,3.88-4.72,3.88-1.3,0-2.72-.38-3.44-.86l.44-1.46Z"/><path class="cls-2" d="M81.86,156.08c0,1,.02,1.88.08,2.64h-1.56l-.1-1.58h-.04c-.46.78-1.48,1.8-3.2,1.8-1.52,0-3.34-.84-3.34-4.24v-5.66h1.76v5.36c0,1.84.56,3.08,2.16,3.08,1.18,0,2-.82,2.32-1.6.1-.26.16-.58.16-.9v-5.94h1.76v7.04Z"/><path class="cls-2" d="M84.78,151.66c0-1-.02-1.82-.08-2.62h1.56l.1,1.6h.04c.48-.92,1.6-1.82,3.2-1.82,1.34,0,3.42.8,3.42,4.12v5.78h-1.76v-5.58c0-1.56-.58-2.86-2.24-2.86-1.16,0-2.06.82-2.36,1.8-.08.22-.12.52-.12.82v5.82h-1.76v-7.06Z"/><path class="cls-2" d="M95.88,152.06c0-1.14-.02-2.12-.08-3.02h1.54l.06,1.9h.08c.44-1.3,1.5-2.12,2.68-2.12.2,0,.34.02.5.06v1.66c-.18-.04-.36-.06-.6-.06-1.24,0-2.12.94-2.36,2.26-.04.24-.08.52-.08.82v5.16h-1.74v-6.66Z"/><path class="cls-2" d="M104.46,146.32c.02.6-.42,1.08-1.12,1.08-.62,0-1.06-.48-1.06-1.08s.46-1.1,1.1-1.1,1.08.48,1.08,1.1ZM102.5,158.72v-9.68h1.76v9.68h-1.76Z"/><path class="cls-2" d="M106.94,156.92c.52.34,1.44.7,2.32.7,1.28,0,1.88-.64,1.88-1.44,0-.84-.5-1.3-1.8-1.78-1.74-.62-2.56-1.58-2.56-2.74,0-1.56,1.26-2.84,3.34-2.84.98,0,1.84.28,2.38.6l-.44,1.28c-.38-.24-1.08-.56-1.98-.56-1.04,0-1.62.6-1.62,1.32,0,.8.58,1.16,1.84,1.64,1.68.64,2.54,1.48,2.54,2.92,0,1.7-1.32,2.9-3.62,2.9-1.06,0-2.04-.26-2.72-.66l.44-1.34Z"/><path class="cls-2" d="M116.08,154.2c.04,2.38,1.56,3.36,3.32,3.36,1.26,0,2.02-.22,2.68-.5l.3,1.26c-.62.28-1.68.6-3.22.6-2.98,0-4.76-1.96-4.76-4.88s1.72-5.22,4.54-5.22c3.16,0,4,2.78,4,4.56,0,.36-.04.64-.06.82h-6.8ZM121.24,152.94c.02-1.12-.46-2.86-2.44-2.86-1.78,0-2.56,1.64-2.7,2.86h5.14Z"/><path class="cls-2" d="M328.56,156.6c.78.48,1.92.88,3.12.88,1.78,0,2.82-.94,2.82-2.3,0-1.26-.72-1.98-2.54-2.68-2.2-.78-3.56-1.92-3.56-3.82,0-2.1,1.74-3.66,4.36-3.66,1.38,0,2.38.32,2.98.66l-.48,1.42c-.44-.24-1.34-.64-2.56-.64-1.84,0-2.54,1.1-2.54,2.02,0,1.26.82,1.88,2.68,2.6,2.28.88,3.44,1.98,3.44,3.96,0,2.08-1.54,3.88-4.72,3.88-1.3,0-2.72-.38-3.44-.86l.44-1.46Z"/><path class="cls-2" d="M346.7,156.08c0,1,.02,1.88.08,2.64h-1.56l-.1-1.58h-.04c-.46.78-1.48,1.8-3.2,1.8-1.52,0-3.34-.84-3.34-4.24v-5.66h1.76v5.36c0,1.84.56,3.08,2.16,3.08,1.18,0,2-.82,2.32-1.6.1-.26.16-.58.16-.9v-5.94h1.76v7.04Z"/><path class="cls-2" d="M349.62,151.66c0-1-.02-1.82-.08-2.62h1.56l.1,1.6h.04c.48-.92,1.6-1.82,3.2-1.82,1.34,0,3.42.8,3.42,4.12v5.78h-1.76v-5.58c0-1.56-.58-2.86-2.24-2.86-1.16,0-2.06.82-2.36,1.8-.08.22-.12.52-.12.82v5.82h-1.76v-7.06Z"/><path class="cls-2" d="M360.48,156.92c.52.34,1.44.7,2.32.7,1.28,0,1.88-.64,1.88-1.44,0-.84-.5-1.3-1.8-1.78-1.74-.62-2.56-1.58-2.56-2.74,0-1.56,1.26-2.84,3.34-2.84.98,0,1.84.28,2.38.6l-.44,1.28c-.38-.24-1.08-.56-1.98-.56-1.04,0-1.62.6-1.62,1.32,0,.8.58,1.16,1.84,1.64,1.68.64,2.54,1.48,2.54,2.92,0,1.7-1.32,2.9-3.62,2.9-1.06,0-2.04-.26-2.72-.66l.44-1.34Z"/><path class="cls-2" d="M369.62,154.2c.04,2.38,1.56,3.36,3.32,3.36,1.26,0,2.02-.22,2.68-.5l.3,1.26c-.62.28-1.68.6-3.22.6-2.98,0-4.76-1.96-4.76-4.88s1.72-5.22,4.54-5.22c3.16,0,4,2.78,4,4.56,0,.36-.04.64-.06.82h-6.8ZM374.78,152.94c.02-1.12-.46-2.86-2.44-2.86-1.78,0-2.56,1.64-2.7,2.86h5.14Z"/><path class="cls-2" d="M380.78,146.26v2.78h2.52v1.34h-2.52v5.22c0,1.2.34,1.88,1.32,1.88.46,0,.8-.06,1.02-.12l.08,1.32c-.34.14-.88.24-1.56.24-.82,0-1.48-.26-1.9-.74-.5-.52-.68-1.38-.68-2.52v-5.28h-1.5v-1.34h1.5v-2.32l1.72-.46Z"/><path class="cls-2" d="M388.96,158.72v-1.08l1.38-1.34c3.32-3.16,4.82-4.84,4.84-6.8,0-1.32-.64-2.54-2.58-2.54-1.18,0-2.16.6-2.76,1.1l-.56-1.24c.9-.76,2.18-1.32,3.68-1.32,2.8,0,3.98,1.92,3.98,3.78,0,2.4-1.74,4.34-4.48,6.98l-1.04.96v.04h5.84v1.46h-8.3Z"/><path class="cls-2" d="M403.04,147.36h-.04l-2.26,1.22-.34-1.34,2.84-1.52h1.5v13h-1.7v-11.36Z"/><path class="cls-2" d="M409.62,150.64c0-.74.5-1.26,1.2-1.26s1.16.52,1.18,1.26c0,.7-.46,1.24-1.2,1.24-.7,0-1.18-.54-1.18-1.24ZM409.62,157.7c0-.74.5-1.26,1.2-1.26s1.16.52,1.18,1.26c0,.7-.46,1.24-1.2,1.24-.7,0-1.18-.54-1.18-1.24Z"/><path class="cls-2" d="M421.38,147.2h-4.96l-.5,3.34c.3-.04.58-.08,1.06-.08,1,0,2,.22,2.8.7,1.02.58,1.86,1.7,1.86,3.34,0,2.54-2.02,4.44-4.84,4.44-1.42,0-2.62-.4-3.24-.8l.44-1.34c.54.32,1.6.72,2.78.72,1.66,0,3.08-1.08,3.08-2.82-.02-1.68-1.14-2.88-3.74-2.88-.74,0-1.32.08-1.8.14l.84-6.24h6.22v1.48Z"/><path class="cls-2" d="M431.3,146.96c-.36-.02-.82,0-1.32.08-2.76.46-4.22,2.48-4.52,4.62h.06c.62-.82,1.7-1.5,3.14-1.5,2.3,0,3.92,1.66,3.92,4.2,0,2.38-1.62,4.58-4.32,4.58s-4.6-2.16-4.6-5.54c0-2.56.92-4.58,2.2-5.86,1.08-1.06,2.52-1.72,4.16-1.92.52-.08.96-.1,1.28-.1v1.44ZM430.8,154.46c0-1.86-1.06-2.98-2.68-2.98-1.06,0-2.04.66-2.52,1.6-.12.2-.2.46-.2.78.04,2.14,1.02,3.72,2.86,3.72,1.52,0,2.54-1.26,2.54-3.12Z"/></g></svg>