<?xml version="1.0" encoding="UTF-8"?><svg id="Layer_2" xmlns="http://www.w3.org/2000/svg" viewBox="0 0 423 140.64"><defs><style>.cls-1{fill:#ffd400;}.cls-1,.cls-2,.cls-3,.cls-4,.cls-5,.cls-6,.cls-7,.cls-8,.cls-9{stroke-width:0px;}.cls-2{fill:#4eb400;}.cls-4{fill:#f7a400;}.cls-5{fill:#fff;}.cls-6{fill:#aecb00;}.cls-7{fill:#ebf0ca;}.cls-8{fill:#d8eccb;}.cls-9{fill:#f56a01;}</style></defs><g id="Layer_1-2"><rect class="cls-4" x="141.45" y="42.42" width="34" height="76"/><rect class="cls-1" x="106.09" y="61.42" width="34" height="57"/><rect class="cls-7" x="70.73" y="80.42" width="34" height="38"/><rect class="cls-8" x="35.36" y="99.42" width="34" height="19"/><rect class="cls-8" y="99.42" width="34" height="19"/><rect class="cls-9" x="176.82" y="23.42" width="34" height="95"/><rect class="cls-9" x="212.18" y="23.42" width="34" height="95"/><rect class="cls-4" x="247.55" y="42.42" width="34" height="76"/><rect class="cls-1" x="282.91" y="61.42" width="34" height="57"/><rect class="cls-6" x="318.27" y="80.42" width="34" height="38"/><rect class="cls-6" x="353.64" y="80.42" width="34" height="38"/><rect class="cls-2" x="389" y="99.42" width="34" height="19"/><path class="cls-3" d="M13.52,137.12c0-1.64.98-2.8,2.58-3.48l-.02-.06c-1.44-.68-2.06-1.8-2.06-2.92,0-2.06,1.74-3.46,4.02-3.46,2.52,0,3.78,1.58,3.78,3.2,0,1.1-.54,2.28-2.14,3.04v.06c1.62.64,2.62,1.78,2.62,3.36,0,2.26-1.94,3.78-4.42,3.78-2.72,0-4.36-1.62-4.36-3.52ZM20.52,137.04c0-1.58-1.1-2.34-2.86-2.84-1.52.44-2.34,1.44-2.34,2.68-.06,1.32.94,2.48,2.6,2.48s2.6-.98,2.6-2.32ZM15.68,130.54c0,1.3.98,2,2.48,2.4,1.12-.38,1.98-1.18,1.98-2.36,0-1.04-.62-2.12-2.2-2.12-1.46,0-2.26.96-2.26,2.08Z"/><path class="cls-3" d="M50.08,139.18c.38.04.82,0,1.42-.06,1.02-.14,1.98-.56,2.72-1.26.86-.78,1.48-1.92,1.72-3.46h-.06c-.72.88-1.76,1.4-3.06,1.4-2.34,0-3.84-1.76-3.84-3.98,0-2.46,1.78-4.62,4.44-4.62s4.3,2.16,4.3,5.48c0,2.86-.96,4.86-2.24,6.1-1,.98-2.38,1.58-3.78,1.74-.64.1-1.2.12-1.62.1v-1.44ZM50.72,131.7c0,1.62.98,2.76,2.5,2.76,1.18,0,2.1-.58,2.56-1.36.1-.16.16-.36.16-.64,0-2.22-.82-3.92-2.66-3.92-1.5,0-2.56,1.32-2.56,3.16Z"/><path class="cls-3" d="M82.57,129.06h-.04l-2.26,1.22-.34-1.34,2.84-1.52h1.5v13h-1.7v-11.36Z"/><path class="cls-3" d="M97.65,133.78c0,4.42-1.64,6.86-4.52,6.86-2.54,0-4.26-2.38-4.3-6.68,0-4.36,1.88-6.76,4.52-6.76s4.3,2.44,4.3,6.58ZM90.59,133.98c0,3.38,1.04,5.3,2.64,5.3,1.8,0,2.66-2.1,2.66-5.42s-.82-5.3-2.64-5.3c-1.54,0-2.66,1.88-2.66,5.42Z"/><path class="cls-3" d="M119.57,129.06h-.04l-2.26,1.22-.34-1.34,2.84-1.52h1.5v13h-1.7v-11.36Z"/><path class="cls-3" d="M129.83,129.06h-.04l-2.26,1.22-.34-1.34,2.84-1.52h1.5v13h-1.7v-11.36Z"/><path class="cls-3" d="M153.62,129.06h-.04l-2.26,1.22-.34-1.34,2.84-1.52h1.5v13h-1.7v-11.36Z"/><path class="cls-3" d="M160.06,140.42v-1.08l1.38-1.34c3.32-3.16,4.82-4.84,4.84-6.8,0-1.32-.64-2.54-2.58-2.54-1.18,0-2.16.6-2.76,1.1l-.56-1.24c.9-.76,2.18-1.32,3.68-1.32,2.8,0,3.98,1.92,3.98,3.78,0,2.4-1.74,4.34-4.48,6.98l-1.04.96v.04h5.84v1.46h-8.3Z"/><path class="cls-3" d="M189.17,129.06h-.04l-2.26,1.22-.34-1.34,2.84-1.52h1.5v13h-1.7v-11.36Z"/><path class="cls-3" d="M196.03,138.4c.5.32,1.66.82,2.88.82,2.26,0,2.96-1.44,2.94-2.52-.02-1.82-1.66-2.6-3.36-2.6h-.98v-1.32h.98c1.28,0,2.9-.66,2.9-2.2,0-1.04-.66-1.96-2.28-1.96-1.04,0-2.04.46-2.6.86l-.46-1.28c.68-.5,2-1,3.4-1,2.56,0,3.72,1.52,3.72,3.1,0,1.34-.8,2.48-2.4,3.06v.04c1.6.32,2.9,1.52,2.9,3.34,0,2.08-1.62,3.9-4.74,3.9-1.46,0-2.74-.46-3.38-.88l.48-1.36Z"/><path class="cls-3" d="M224.18,129.06h-.04l-2.26,1.22-.34-1.34,2.84-1.52h1.5v13h-1.7v-11.36Z"/><path class="cls-3" d="M236.06,140.42v-3.54h-6.04v-1.16l5.8-8.3h1.9v8.08h1.82v1.38h-1.82v3.54h-1.66ZM236.06,135.5v-4.34c0-.68.02-1.36.06-2.04h-.06c-.4.76-.72,1.32-1.08,1.92l-3.18,4.42v.04h4.26Z"/><path class="cls-3" d="M260.07,129.06h-.04l-2.26,1.22-.34-1.34,2.84-1.52h1.5v13h-1.7v-11.36Z"/><path class="cls-3" d="M274.27,128.9h-4.96l-.5,3.34c.3-.04.58-.08,1.06-.08,1,0,2,.22,2.8.7,1.02.58,1.86,1.7,1.86,3.34,0,2.54-2.02,4.44-4.84,4.44-1.42,0-2.62-.4-3.24-.8l.44-1.34c.54.32,1.6.72,2.78.72,1.66,0,3.08-1.08,3.08-2.82-.02-1.68-1.14-2.88-3.74-2.88-.74,0-1.32.08-1.8.14l.84-6.24h6.22v1.48Z"/><path class="cls-3" d="M295.17,129.06h-.04l-2.26,1.22-.34-1.34,2.84-1.52h1.5v13h-1.7v-11.36Z"/><path class="cls-3" d="M309.03,128.66c-.36-.02-.82,0-1.32.08-2.76.46-4.22,2.48-4.52,4.62h.06c.62-.82,1.7-1.5,3.14-1.5,2.3,0,3.92,1.66,3.92,4.2,0,2.38-1.62,4.58-4.32,4.58s-4.6-2.16-4.6-5.54c0-2.56.92-4.58,2.2-5.86,1.08-1.06,2.52-1.72,4.16-1.92.52-.08.96-.1,1.28-.1v1.44ZM308.53,136.16c0-1.86-1.06-2.98-2.68-2.98-1.06,0-2.04.66-2.52,1.6-.12.2-.2.46-.2.78.04,2.14,1.02,3.72,2.86,3.72,1.52,0,2.54-1.26,2.54-3.12Z"/><path class="cls-3" d="M330.74,129.06h-.04l-2.26,1.22-.34-1.34,2.84-1.52h1.5v13h-1.7v-11.36Z"/><path class="cls-3" d="M345.62,127.42v1.16l-5.66,11.84h-1.82l5.64-11.5v-.04h-6.36v-1.46h8.2Z"/><path class="cls-3" d="M366.08,129.06h-.04l-2.26,1.22-.34-1.34,2.84-1.52h1.5v13h-1.7v-11.36Z"/><path class="cls-3" d="M372.36,137.12c0-1.64.98-2.8,2.58-3.48l-.02-.06c-1.44-.68-2.06-1.8-2.06-2.92,0-2.06,1.74-3.46,4.02-3.46,2.52,0,3.78,1.58,3.78,3.2,0,1.1-.54,2.28-2.14,3.04v.06c1.62.64,2.62,1.78,2.62,3.36,0,2.26-1.94,3.78-4.42,3.78-2.72,0-4.36-1.62-4.36-3.52ZM379.37,137.04c0-1.58-1.1-2.34-2.86-2.84-1.52.44-2.34,1.44-2.34,2.68-.06,1.32.94,2.48,2.6,2.48s2.6-.98,2.6-2.32ZM374.52,130.54c0,1.3.98,2,2.48,2.4,1.12-.38,1.98-1.18,1.98-2.36,0-1.04-.62-2.12-2.2-2.12-1.46,0-2.26.96-2.26,2.08Z"/><path class="cls-3" d="M401.5,129.06h-.04l-2.26,1.22-.34-1.34,2.84-1.52h1.5v13h-1.7v-11.36Z"/><path class="cls-3" d="M408.96,139.18c.38.04.82,0,1.42-.06,1.02-.14,1.98-.56,2.72-1.26.86-.78,1.48-1.92,1.72-3.46h-.06c-.72.88-1.76,1.4-3.06,1.4-2.34,0-3.84-1.76-3.84-3.98,0-2.46,1.78-4.62,4.44-4.62s4.3,2.16,4.3,5.48c0,2.86-.96,4.86-2.24,6.1-1,.98-2.38,1.58-3.78,1.74-.64.1-1.2.12-1.62.1v-1.44ZM409.6,131.7c0,1.62.98,2.76,2.5,2.76,1.18,0,2.1-.58,2.56-1.36.1-.16.16-.36.16-.64,0-2.22-.82-3.92-2.66-3.92-1.5,0-2.56,1.32-2.56,3.16Z"/><path class="cls-5" d="M119.75,95.41c.4.26,1.33.66,2.3.66,1.81,0,2.37-1.15,2.35-2.02-.02-1.46-1.33-2.08-2.69-2.08h-.78v-1.06h.78c1.02,0,2.32-.53,2.32-1.76,0-.83-.53-1.57-1.82-1.57-.83,0-1.63.37-2.08.69l-.37-1.02c.54-.4,1.6-.8,2.72-.8,2.05,0,2.98,1.22,2.98,2.48,0,1.07-.64,1.98-1.92,2.45v.03c1.28.26,2.32,1.22,2.32,2.67,0,1.66-1.3,3.12-3.79,3.12-1.17,0-2.19-.37-2.71-.7l.38-1.09Z"/><path class="cls-5" d="M160.77,82.03v-2.83h-4.83v-.93l4.64-6.64h1.52v6.47h1.46v1.1h-1.46v2.83h-1.33ZM160.77,78.09v-3.47c0-.54.02-1.09.05-1.63h-.05c-.32.61-.58,1.06-.86,1.54l-2.54,3.54v.03h3.41Z"/><path class="cls-5" d="M196.63,64.81h-3.97l-.4,2.67c.24-.03.46-.06.85-.06.8,0,1.6.18,2.24.56.82.46,1.49,1.36,1.49,2.67,0,2.03-1.62,3.55-3.87,3.55-1.14,0-2.1-.32-2.59-.64l.35-1.07c.43.26,1.28.58,2.22.58,1.33,0,2.46-.86,2.46-2.26-.02-1.34-.91-2.31-2.99-2.31-.59,0-1.06.06-1.44.11l.67-4.99h4.98v1.18Z"/><path class="cls-5" d="M232.63,65.81h-3.97l-.4,2.67c.24-.03.46-.06.85-.06.8,0,1.6.18,2.24.56.82.46,1.49,1.36,1.49,2.67,0,2.03-1.62,3.55-3.87,3.55-1.14,0-2.1-.32-2.59-.64l.35-1.07c.43.26,1.28.58,2.22.58,1.33,0,2.46-.86,2.46-2.26-.02-1.34-.91-2.31-2.99-2.31-.59,0-1.06.06-1.44.11l.67-4.99h4.98v1.18Z"/><path class="cls-5" d="M266.77,86.03v-2.83h-4.83v-.93l4.64-6.64h1.52v6.47h1.46v1.1h-1.46v2.83h-1.33ZM266.77,82.09v-3.47c0-.54.02-1.09.05-1.63h-.05c-.32.61-.58,1.06-.86,1.54l-2.54,3.54v.03h3.41Z"/><path class="cls-5" d="M295.75,93.41c.4.26,1.33.66,2.3.66,1.81,0,2.37-1.15,2.35-2.02-.02-1.46-1.33-2.08-2.69-2.08h-.78v-1.06h.78c1.02,0,2.32-.53,2.32-1.76,0-.83-.53-1.57-1.82-1.57-.83,0-1.63.37-2.08.69l-.37-1.02c.54-.4,1.6-.8,2.72-.8,2.05,0,2.98,1.22,2.98,2.48,0,1.07-.64,1.98-1.92,2.45v.03c1.28.26,2.32,1.22,2.32,2.67,0,1.66-1.3,3.12-3.79,3.12-1.17,0-2.19-.37-2.71-.7l.38-1.09Z"/><path class="cls-5" d="M331.42,104.03v-.86l1.1-1.07c2.66-2.53,3.86-3.87,3.87-5.44,0-1.06-.51-2.03-2.06-2.03-.94,0-1.73.48-2.21.88l-.45-.99c.72-.61,1.74-1.06,2.95-1.06,2.24,0,3.18,1.54,3.18,3.02,0,1.92-1.39,3.47-3.58,5.59l-.83.77v.03h4.67v1.17h-6.64Z"/><path class="cls-5" d="M368.42,104.03v-.86l1.1-1.07c2.66-2.53,3.86-3.87,3.87-5.44,0-1.06-.51-2.03-2.06-2.03-.94,0-1.73.48-2.21.88l-.45-.99c.72-.61,1.74-1.06,2.95-1.06,2.24,0,3.18,1.54,3.18,3.02,0,1.92-1.39,3.47-3.58,5.59l-.83.77v.03h4.67v1.17h-6.64Z"/><path class="cls-5" d="M404.47,105.94h-.03l-1.81.98-.27-1.07,2.27-1.22h1.2v10.4h-1.36v-9.09Z"/><path class="cls-3" d="M5.35.72v7.98c0,3.02,1.34,4.3,3.14,4.3,2,0,3.28-1.32,3.28-4.3V.72h1.76v7.86c0,4.14-2.18,5.84-5.1,5.84-2.76,0-4.84-1.58-4.84-5.76V.72h1.76Z"/><path class="cls-3" d="M19.51,14.2L15.11.72h1.88l2.1,6.64c.58,1.82,1.08,3.46,1.44,5.04h.04c.38-1.56.94-3.26,1.54-5.02l2.28-6.66h1.86l-4.82,13.48h-1.92Z"/><path class="cls-3" d="M33.69.72v13.48h-1.74V.72h1.74Z"/><path class="cls-3" d="M36.87,7.14c0-1-.02-1.82-.08-2.62h1.56l.1,1.6h.04c.48-.92,1.6-1.82,3.2-1.82,1.34,0,3.42.8,3.42,4.12v5.78h-1.76v-5.58c0-1.56-.58-2.86-2.24-2.86-1.16,0-2.06.82-2.36,1.8-.08.22-.12.52-.12.82v5.82h-1.76v-7.06Z"/><path class="cls-3" d="M56.33,0v11.7c0,.86.02,1.84.08,2.5h-1.58l-.08-1.68h-.04c-.54,1.08-1.72,1.9-3.3,1.9-2.34,0-4.14-1.98-4.14-4.92-.02-3.22,1.98-5.2,4.34-5.2,1.48,0,2.48.7,2.92,1.48h.04V0h1.76ZM54.57,8.46c0-.22-.02-.52-.08-.74-.26-1.12-1.22-2.04-2.54-2.04-1.82,0-2.9,1.6-2.9,3.74,0,1.96.96,3.58,2.86,3.58,1.18,0,2.26-.78,2.58-2.1.06-.24.08-.48.08-.76v-1.68Z"/><path class="cls-3" d="M60.23,9.68c.04,2.38,1.56,3.36,3.32,3.36,1.26,0,2.02-.22,2.68-.5l.3,1.26c-.62.28-1.68.6-3.22.6-2.98,0-4.76-1.96-4.76-4.88s1.72-5.22,4.54-5.22c3.16,0,4,2.78,4,4.56,0,.36-.04.64-.06.82h-6.8ZM65.39,8.42c.02-1.12-.46-2.86-2.44-2.86-1.78,0-2.56,1.64-2.7,2.86h5.14Z"/><path class="cls-3" d="M70.03,4.52l1.38,2.08c.36.54.66,1.04.98,1.58h.06c.32-.58.64-1.08.96-1.6l1.36-2.06h1.9l-3.3,4.68,3.4,5h-2l-1.42-2.18c-.38-.56-.7-1.1-1.04-1.68h-.04c-.32.58-.66,1.1-1.02,1.68l-1.4,2.18h-1.94l3.44-4.94-3.28-4.74h1.96Z"/></g></svg>