<?xml version="1.0" encoding="UTF-8"?><svg id="Layer_2" xmlns="http://www.w3.org/2000/svg" viewBox="0 0 414.76 140.62"><defs><style>.cls-1,.cls-2,.cls-3{stroke-width:0px;}.cls-2{fill:gray;}.cls-3{fill:#00b2ff;}</style></defs><g id="Layer_1-2"><path class="cls-1" d="M2.55.9c.88-.18,2.14-.28,3.34-.28,1.86,0,3.06.34,3.9,1.1.68.6,1.06,1.52,1.06,2.56,0,1.78-1.12,2.96-2.54,3.44v.06c1.04.36,1.66,1.32,1.98,2.72.44,1.88.76,3.18,1.04,3.7h-1.8c-.22-.38-.52-1.54-.9-3.22-.4-1.86-1.12-2.56-2.7-2.62h-1.64v5.84h-1.74V.9ZM4.29,7.04h1.78c1.86,0,3.04-1.02,3.04-2.56,0-1.74-1.26-2.5-3.1-2.52-.84,0-1.44.08-1.72.16v4.92Z"/><path class="cls-1" d="M18.85,14.2l-.14-1.22h-.06c-.54.76-1.58,1.44-2.96,1.44-1.96,0-2.96-1.38-2.96-2.78,0-2.34,2.08-3.62,5.82-3.6v-.2c0-.8-.22-2.24-2.2-2.24-.9,0-1.84.28-2.52.72l-.4-1.16c.8-.52,1.96-.86,3.18-.86,2.96,0,3.68,2.02,3.68,3.96v3.62c0,.84.04,1.66.16,2.32h-1.6ZM18.59,9.26c-1.92-.04-4.1.3-4.1,2.18,0,1.14.76,1.68,1.66,1.68,1.26,0,2.06-.8,2.34-1.62.06-.18.1-.38.1-.56v-1.68Z"/><path class="cls-1" d="M25.09,1.8c.02.6-.42,1.08-1.12,1.08-.62,0-1.06-.48-1.06-1.08s.46-1.1,1.1-1.1,1.08.48,1.08,1.1ZM23.13,14.2V4.52h1.76v9.68h-1.76Z"/><path class="cls-1" d="M27.81,7.14c0-1-.02-1.82-.08-2.62h1.56l.1,1.6h.04c.48-.92,1.6-1.82,3.2-1.82,1.34,0,3.42.8,3.42,4.12v5.78h-1.76v-5.58c0-1.56-.58-2.86-2.24-2.86-1.16,0-2.06.82-2.36,1.8-.08.22-.12.52-.12.82v5.82h-1.76v-7.06Z"/><path class="cls-1" d="M52.63,13.76c-.64.32-1.92.64-3.56.64-3.8,0-6.66-2.4-6.66-6.82s2.86-7.08,7.04-7.08c1.68,0,2.74.36,3.2.6l-.42,1.42c-.66-.32-1.6-.56-2.72-.56-3.16,0-5.26,2.02-5.26,5.56,0,3.3,1.9,5.42,5.18,5.42,1.06,0,2.14-.22,2.84-.56l.36,1.38Z"/><path class="cls-1" d="M54.75,0h1.76v6.04h.04c.28-.5.72-.94,1.26-1.24.52-.3,1.14-.5,1.8-.5,1.3,0,3.38.8,3.38,4.14v5.76h-1.76v-5.56c0-1.56-.58-2.88-2.24-2.88-1.14,0-2.04.8-2.36,1.76-.1.24-.12.5-.12.84v5.84h-1.76V0Z"/><path class="cls-1" d="M71.21,14.2l-.14-1.22h-.06c-.54.76-1.58,1.44-2.96,1.44-1.96,0-2.96-1.38-2.96-2.78,0-2.34,2.08-3.62,5.82-3.6v-.2c0-.8-.22-2.24-2.2-2.24-.9,0-1.84.28-2.52.72l-.4-1.16c.8-.52,1.96-.86,3.18-.86,2.96,0,3.68,2.02,3.68,3.96v3.62c0,.84.04,1.66.16,2.32h-1.6ZM70.95,9.26c-1.92-.04-4.1.3-4.1,2.18,0,1.14.76,1.68,1.66,1.68,1.26,0,2.06-.8,2.34-1.62.06-.18.1-.38.1-.56v-1.68Z"/><path class="cls-1" d="M75.49,7.14c0-1-.02-1.82-.08-2.62h1.56l.1,1.6h.04c.48-.92,1.6-1.82,3.2-1.82,1.34,0,3.42.8,3.42,4.12v5.78h-1.76v-5.58c0-1.56-.58-2.86-2.24-2.86-1.16,0-2.06.82-2.36,1.8-.08.22-.12.52-.12.82v5.82h-1.76v-7.06Z"/><path class="cls-1" d="M93.49,13.84c-.46.24-1.48.56-2.78.56-2.92,0-4.82-1.98-4.82-4.94s2.04-5.14,5.2-5.14c1.04,0,1.96.26,2.44.5l-.4,1.36c-.42-.24-1.08-.46-2.04-.46-2.22,0-3.42,1.64-3.42,3.66,0,2.24,1.44,3.62,3.36,3.62,1,0,1.66-.26,2.16-.48l.3,1.32Z"/><path class="cls-1" d="M96.41,9.68c.04,2.38,1.56,3.36,3.32,3.36,1.26,0,2.02-.22,2.68-.5l.3,1.26c-.62.28-1.68.6-3.22.6-2.98,0-4.76-1.96-4.76-4.88s1.72-5.22,4.54-5.22c3.16,0,4,2.78,4,4.56,0,.36-.04.64-.06.82h-6.8ZM101.57,8.42c.02-1.12-.46-2.86-2.44-2.86-1.78,0-2.56,1.64-2.7,2.86h5.14Z"/><path class="cls-1" d="M104.07,16.66c.44-1.18.98-3.32,1.2-4.78l1.96-.2c-.46,1.7-1.34,3.92-1.9,4.86l-1.26.12Z"/><path class="cls-1" d="M118.89,4.86c0,2.74-1.44,4.1-3.12,4.1s-3.02-1.3-3.04-3.92c0-2.6,1.42-4.06,3.14-4.06,1.82,0,3.02,1.4,3.02,3.88ZM114.12,4.98c-.04,1.66.58,2.92,1.68,2.92,1.16,0,1.68-1.24,1.68-2.96,0-1.58-.46-2.9-1.68-2.9-1.1,0-1.68,1.3-1.68,2.94ZM115.64,14.42l7.64-13.44h1.12l-7.64,13.44h-1.12ZM127.35,10.24c0,2.74-1.44,4.1-3.1,4.1s-3.02-1.3-3.04-3.9c0-2.62,1.42-4.08,3.14-4.08,1.82,0,3,1.4,3,3.88ZM122.59,10.36c-.02,1.66.62,2.92,1.7,2.92,1.16,0,1.68-1.24,1.68-2.96,0-1.58-.46-2.9-1.68-2.9-1.1,0-1.7,1.3-1.7,2.94Z"/><path class="cls-3" d="M8.13,97.61c-1.83,0-3.31-1.48-3.31-3.31,0-1.57,2.25-4.52,2.87-5.32.1-.13.26-.2.42-.2h.03c.17,0,.32.07.42.2.63.79,2.87,3.74,2.87,5.32,0,1.83-1.48,3.31-3.31,3.31ZM6.48,94.58c0-.15-.12-.28-.28-.28s-.28.12-.28.28c0,1.07.86,1.93,1.93,1.93.15,0,.28-.12.28-.28s-.12-.28-.28-.28c-.76,0-1.38-.62-1.38-1.38Z"/><path class="cls-3" d="M47.13,111.61c-1.83,0-3.31-1.48-3.31-3.31,0-1.57,2.25-4.52,2.87-5.32.1-.13.26-.2.42-.2h.03c.17,0,.32.07.42.2.63.79,2.87,3.74,2.87,5.32,0,1.83-1.48,3.31-3.31,3.31ZM45.48,108.58c0-.15-.12-.28-.28-.28s-.28.12-.28.28c0,1.07.86,1.93,1.93,1.93.15,0,.28-.12.28-.28s-.12-.28-.28-.28c-.76,0-1.38-.62-1.38-1.38Z"/><path class="cls-3" d="M407.13,97.61c-1.83,0-3.31-1.48-3.31-3.31,0-1.57,2.25-4.52,2.87-5.32.1-.13.26-.2.42-.2h.03c.17,0,.32.07.42.2.63.79,2.87,3.74,2.87,5.32,0,1.83-1.48,3.31-3.31,3.31ZM405.48,94.58c0-.15-.12-.28-.28-.28s-.28.12-.28.28c0,1.07.86,1.93,1.93,1.93.15,0,.28-.12.28-.28s-.12-.28-.28-.28c-.76,0-1.38-.62-1.38-1.38Z"/><path class="cls-3" d="M85.13,114.61c-1.83,0-3.31-1.48-3.31-3.31,0-1.57,2.25-4.52,2.87-5.32.1-.13.26-.2.42-.2h.03c.17,0,.32.07.42.2.63.79,2.87,3.74,2.87,5.32,0,1.83-1.48,3.31-3.31,3.31ZM83.48,111.58c0-.15-.12-.28-.28-.28s-.28.12-.28.28c0,1.07.86,1.93,1.93,1.93.15,0,.28-.12.28-.28s-.12-.28-.28-.28c-.76,0-1.38-.62-1.38-1.38Z"/><path class="cls-3" d="M117.13,111.61c-1.83,0-3.31-1.48-3.31-3.31,0-1.57,2.25-4.52,2.87-5.32.1-.13.26-.2.42-.2h.03c.17,0,.32.07.42.2.63.79,2.87,3.74,2.87,5.32,0,1.83-1.48,3.31-3.31,3.31ZM115.48,108.58c0-.15-.12-.28-.28-.28s-.28.12-.28.28c0,1.07.86,1.93,1.93,1.93.15,0,.28-.12.28-.28s-.12-.28-.28-.28c-.76,0-1.38-.62-1.38-1.38Z"/><path class="cls-3" d="M154.13,105.61c-1.83,0-3.31-1.48-3.31-3.31,0-1.57,2.25-4.52,2.87-5.32.1-.13.26-.2.42-.2h.03c.17,0,.32.07.42.2.63.79,2.87,3.74,2.87,5.32,0,1.83-1.48,3.31-3.31,3.31ZM152.48,102.58c0-.15-.12-.28-.28-.28s-.28.12-.28.28c0,1.07.86,1.93,1.93,1.93.15,0,.28-.12.28-.28s-.12-.28-.28-.28c-.76,0-1.38-.62-1.38-1.38Z"/><path class="cls-3" d="M190.13,97.61c-1.83,0-3.31-1.48-3.31-3.31,0-1.57,2.25-4.52,2.87-5.32.1-.13.26-.2.42-.2h.03c.17,0,.32.07.42.2.63.79,2.87,3.74,2.87,5.32,0,1.83-1.48,3.31-3.31,3.31ZM188.48,94.58c0-.15-.12-.28-.28-.28s-.28.12-.28.28c0,1.07.86,1.93,1.93,1.93.15,0,.28-.12.28-.28s-.12-.28-.28-.28c-.76,0-1.38-.62-1.38-1.38Z"/><path class="cls-3" d="M227.13,82.46c-2.57,0-4.65-2.08-4.65-4.65,0-2.21,3.16-6.36,4.04-7.47.15-.18.36-.28.59-.28h.04c.23,0,.45.1.59.28.88,1.11,4.04,5.26,4.04,7.47,0,2.57-2.08,4.65-4.65,4.65ZM224.81,78.2c0-.21-.17-.39-.39-.39s-.39.17-.39.39c0,1.5,1.21,2.71,2.71,2.71.21,0,.39-.17.39-.39s-.17-.39-.39-.39c-1.07,0-1.94-.87-1.94-1.94Z"/><path class="cls-3" d="M262.13,74.46c-2.57,0-4.65-2.08-4.65-4.65,0-2.21,3.16-6.36,4.04-7.47.15-.18.36-.28.59-.28h.04c.23,0,.45.1.59.28.88,1.11,4.04,5.26,4.04,7.47,0,2.57-2.08,4.65-4.65,4.65ZM259.81,70.2c0-.21-.17-.39-.39-.39s-.39.17-.39.39c0,1.5,1.21,2.71,2.71,2.71.21,0,.39-.17.39-.39s-.17-.39-.39-.39c-1.07,0-1.94-.87-1.94-1.94Z"/><path class="cls-3" d="M299.13,68.46c-2.57,0-4.65-2.08-4.65-4.65,0-2.21,3.16-6.36,4.04-7.47.15-.18.36-.28.59-.28h.04c.23,0,.45.1.59.28.88,1.11,4.04,5.26,4.04,7.47,0,2.57-2.08,4.65-4.65,4.65ZM296.81,64.2c0-.21-.17-.39-.39-.39s-.39.17-.39.39c0,1.5,1.21,2.71,2.71,2.71.21,0,.39-.17.39-.39s-.17-.39-.39-.39c-1.07,0-1.94-.87-1.94-1.94Z"/><path class="cls-3" d="M371.13,68.46c-2.57,0-4.65-2.08-4.65-4.65,0-2.21,3.16-6.36,4.04-7.47.15-.18.36-.28.59-.28h.04c.23,0,.45.1.59.28.88,1.11,4.04,5.26,4.04,7.47,0,2.57-2.08,4.65-4.65,4.65ZM368.81,64.2c0-.21-.17-.39-.39-.39s-.39.17-.39.39c0,1.5,1.21,2.71,2.71,2.71.21,0,.39-.17.39-.39s-.17-.39-.39-.39c-1.07,0-1.94-.87-1.94-1.94Z"/><path class="cls-3" d="M335.13,61.46c-4.57,0-8.27-3.7-8.27-8.27,0-3.93,5.61-11.3,7.18-13.28.26-.32.64-.5,1.05-.5h.08c.41,0,.8.18,1.05.5,1.57,1.98,7.18,9.35,7.18,13.28,0,4.57-3.7,8.27-8.27,8.27ZM331,53.88c0-.38-.31-.69-.69-.69s-.69.31-.69.69c0,2.67,2.16,4.82,4.82,4.82.38,0,.69-.31.69-.69s-.31-.69-.69-.69c-1.9,0-3.45-1.54-3.45-3.45Z"/><path class="cls-1" d="M.43,81.69c.45.29,1.49.74,2.59.74,2.03,0,2.67-1.3,2.65-2.27-.02-1.64-1.49-2.34-3.02-2.34h-.88v-1.19h.88c1.15,0,2.61-.59,2.61-1.98,0-.94-.59-1.76-2.05-1.76-.94,0-1.84.41-2.34.77l-.41-1.15c.61-.45,1.8-.9,3.06-.9,2.3,0,3.35,1.37,3.35,2.79,0,1.21-.72,2.23-2.16,2.75v.04c1.44.29,2.61,1.37,2.61,3.01,0,1.87-1.46,3.51-4.27,3.51-1.31,0-2.47-.41-3.04-.79l.43-1.22Z"/><path class="cls-1" d="M15.97,72.92c-.32-.02-.74,0-1.19.07-2.48.41-3.8,2.23-4.07,4.16h.05c.56-.74,1.53-1.35,2.83-1.35,2.07,0,3.53,1.49,3.53,3.78,0,2.14-1.46,4.12-3.89,4.12s-4.14-1.94-4.14-4.99c0-2.3.83-4.12,1.98-5.28.97-.95,2.27-1.55,3.75-1.73.47-.07.86-.09,1.15-.09v1.3ZM15.52,79.67c0-1.67-.95-2.68-2.41-2.68-.95,0-1.84.59-2.27,1.44-.11.18-.18.41-.18.7.04,1.93.92,3.35,2.58,3.35,1.37,0,2.29-1.13,2.29-2.81Z"/><path class="cls-1" d="M223.73,51.92c-.32-.02-.74,0-1.19.07-2.48.41-3.8,2.23-4.07,4.16h.05c.56-.74,1.53-1.35,2.83-1.35,2.07,0,3.53,1.49,3.53,3.78,0,2.14-1.46,4.12-3.89,4.12s-4.14-1.94-4.14-4.99c0-2.3.83-4.12,1.98-5.28.97-.95,2.27-1.55,3.75-1.73.47-.07.86-.09,1.15-.09v1.3ZM223.28,58.67c0-1.67-.95-2.68-2.41-2.68-.95,0-1.84.59-2.27,1.44-.11.18-.18.41-.18.7.04,1.93.92,3.35,2.57,3.35,1.37,0,2.29-1.13,2.29-2.81Z"/><path class="cls-1" d="M233.89,50.8v1.04l-5.1,10.66h-1.64l5.08-10.35v-.04h-5.73v-1.31h7.38Z"/><path class="cls-1" d="M325.91,31.54c0-1.48.88-2.52,2.32-3.13l-.02-.05c-1.3-.61-1.85-1.62-1.85-2.63,0-1.85,1.57-3.11,3.62-3.11,2.27,0,3.4,1.42,3.4,2.88,0,.99-.49,2.05-1.93,2.74v.05c1.46.58,2.36,1.6,2.36,3.02,0,2.03-1.75,3.4-3.98,3.4-2.45,0-3.93-1.46-3.93-3.17ZM332.21,31.46c0-1.42-.99-2.11-2.57-2.56-1.37.4-2.11,1.3-2.11,2.41-.05,1.19.85,2.23,2.34,2.23s2.34-.88,2.34-2.09ZM327.85,25.61c0,1.17.88,1.8,2.23,2.16,1.01-.34,1.78-1.06,1.78-2.12,0-.94-.56-1.91-1.98-1.91-1.31,0-2.04.86-2.04,1.87Z"/><path class="cls-1" d="M335.14,31.54c0-1.48.88-2.52,2.32-3.13l-.02-.05c-1.3-.61-1.85-1.62-1.85-2.63,0-1.85,1.57-3.11,3.62-3.11,2.27,0,3.4,1.42,3.4,2.88,0,.99-.49,2.05-1.93,2.74v.05c1.46.58,2.36,1.6,2.36,3.02,0,2.03-1.75,3.4-3.98,3.4-2.45,0-3.93-1.46-3.93-3.17ZM341.45,31.46c0-1.42-.99-2.11-2.57-2.56-1.37.4-2.11,1.3-2.11,2.41-.05,1.19.85,2.23,2.34,2.23s2.34-.88,2.34-2.09ZM337.09,25.61c0,1.17.88,1.8,2.23,2.16,1.01-.34,1.78-1.06,1.78-2.12,0-.94-.56-1.91-1.98-1.91-1.31,0-2.04.86-2.04,1.87Z"/><path class="cls-1" d="M369.65,39.8v1.04l-5.09,10.66h-1.64l5.08-10.35v-.04h-5.73v-1.31h7.38Z"/><path class="cls-1" d="M371.67,49.69c.45.29,1.49.74,2.59.74,2.03,0,2.67-1.3,2.65-2.27-.02-1.64-1.49-2.34-3.02-2.34h-.88v-1.19h.88c1.15,0,2.61-.59,2.61-1.98,0-.94-.59-1.76-2.05-1.76-.94,0-1.84.41-2.34.77l-.41-1.15c.61-.45,1.8-.9,3.06-.9,2.3,0,3.35,1.37,3.35,2.79,0,1.21-.72,2.23-2.16,2.75v.04c1.44.29,2.61,1.37,2.61,3.01,0,1.87-1.46,3.51-4.27,3.51-1.31,0-2.47-.41-3.04-.79l.43-1.22Z"/><path class="cls-1" d="M398.05,83.51v-.97l1.24-1.21c2.99-2.84,4.34-4.36,4.36-6.12,0-1.19-.58-2.29-2.32-2.29-1.06,0-1.94.54-2.48.99l-.5-1.12c.81-.68,1.96-1.19,3.31-1.19,2.52,0,3.58,1.73,3.58,3.4,0,2.16-1.57,3.91-4.03,6.28l-.94.86v.04h5.26v1.31h-7.47Z"/><path class="cls-1" d="M407.29,83.51v-.97l1.24-1.21c2.99-2.84,4.34-4.36,4.36-6.12,0-1.19-.58-2.29-2.32-2.29-1.06,0-1.94.54-2.48.99l-.5-1.12c.81-.68,1.96-1.19,3.31-1.19,2.52,0,3.58,1.73,3.58,3.4,0,2.16-1.57,3.91-4.03,6.28l-.94.86v.04h5.26v1.31h-7.47Z"/><path class="cls-1" d="M81.97,100.39c.34.04.74,0,1.28-.05.92-.13,1.78-.5,2.45-1.13.77-.7,1.33-1.73,1.55-3.11h-.05c-.65.79-1.58,1.26-2.75,1.26-2.11,0-3.46-1.58-3.46-3.58,0-2.21,1.6-4.16,4-4.16s3.87,1.94,3.87,4.93c0,2.58-.86,4.38-2.02,5.49-.9.88-2.14,1.42-3.4,1.57-.58.09-1.08.11-1.46.09v-1.3ZM82.55,93.66c0,1.46.88,2.48,2.25,2.48,1.06,0,1.89-.52,2.3-1.22.09-.14.14-.32.14-.58,0-2-.74-3.53-2.39-3.53-1.35,0-2.3,1.19-2.3,2.85Z"/><path class="cls-2" d="M4.06,129.19h-.04l-2.03,1.1-.31-1.21,2.56-1.37h1.35v11.7h-1.53v-10.23Z"/><path class="cls-2" d="M17.63,133.44c0,3.98-1.48,6.18-4.07,6.18-2.29,0-3.83-2.14-3.87-6.01,0-3.92,1.69-6.09,4.07-6.09s3.87,2.2,3.87,5.92ZM11.27,133.62c0,3.04.94,4.77,2.38,4.77,1.62,0,2.39-1.89,2.39-4.88s-.74-4.77-2.38-4.77c-1.39,0-2.39,1.69-2.39,4.88Z"/><path class="cls-2" d="M40.28,129.19h-.04l-2.03,1.1-.31-1.21,2.56-1.37h1.35v11.7h-1.53v-10.23Z"/><path class="cls-2" d="M46.08,139.42v-.97l1.24-1.21c2.99-2.84,4.34-4.36,4.36-6.12,0-1.19-.58-2.29-2.32-2.29-1.06,0-1.94.54-2.48.99l-.5-1.12c.81-.68,1.96-1.19,3.31-1.19,2.52,0,3.58,1.73,3.58,3.4,0,2.16-1.57,3.91-4.03,6.28l-.94.86v.04h5.26v1.31h-7.47Z"/><path class="cls-2" d="M76.07,129.19h-.04l-2.03,1.1-.31-1.21,2.56-1.37h1.35v11.7h-1.53v-10.23Z"/><path class="cls-2" d="M86.76,139.42v-3.19h-5.44v-1.04l5.22-7.47h1.71v7.27h1.64v1.24h-1.64v3.19h-1.49ZM86.76,134.99v-3.91c0-.61.02-1.22.05-1.84h-.05c-.36.68-.65,1.19-.97,1.73l-2.86,3.98v.04h3.83Z"/><path class="cls-2" d="M112.24,129.19h-.04l-2.03,1.1-.31-1.21,2.56-1.37h1.35v11.7h-1.53v-10.23Z"/><path class="cls-2" d="M124.72,128.83c-.32-.02-.74,0-1.19.07-2.48.41-3.8,2.23-4.07,4.16h.05c.56-.74,1.53-1.35,2.83-1.35,2.07,0,3.53,1.49,3.53,3.78,0,2.14-1.46,4.12-3.89,4.12s-4.14-1.94-4.14-4.99c0-2.3.83-4.12,1.98-5.28.97-.95,2.27-1.55,3.75-1.73.47-.07.86-.09,1.15-.09v1.3ZM124.27,135.59c0-1.67-.95-2.68-2.41-2.68-.95,0-1.84.59-2.27,1.44-.11.18-.18.41-.18.7.04,1.93.92,3.35,2.58,3.35,1.37,0,2.29-1.13,2.29-2.81Z"/><path class="cls-2" d="M148.35,130.19h-.04l-2.03,1.1-.31-1.21,2.56-1.37h1.35v11.7h-1.53v-10.23Z"/><path class="cls-2" d="M154,137.45c0-1.48.88-2.52,2.32-3.13l-.02-.05c-1.3-.61-1.85-1.62-1.85-2.63,0-1.85,1.57-3.11,3.62-3.11,2.27,0,3.4,1.42,3.4,2.88,0,.99-.49,2.05-1.93,2.74v.05c1.46.58,2.36,1.6,2.36,3.02,0,2.03-1.75,3.4-3.98,3.4-2.45,0-3.93-1.46-3.93-3.17ZM160.3,137.38c0-1.42-.99-2.11-2.57-2.56-1.37.4-2.11,1.3-2.11,2.41-.05,1.19.85,2.23,2.34,2.23s2.34-.88,2.34-2.09ZM155.94,131.53c0,1.17.88,1.8,2.23,2.16,1.01-.34,1.78-1.06,1.78-2.12,0-.94-.56-1.91-1.98-1.91-1.31,0-2.04.86-2.04,1.87Z"/><path class="cls-2" d="M181.5,139.42v-.97l1.24-1.21c2.99-2.84,4.34-4.36,4.36-6.12,0-1.19-.58-2.29-2.32-2.29-1.06,0-1.94.54-2.48.99l-.5-1.12c.81-.68,1.96-1.19,3.31-1.19,2.52,0,3.58,1.73,3.58,3.4,0,2.16-1.57,3.91-4.03,6.28l-.94.86v.04h5.26v1.31h-7.47Z"/><path class="cls-2" d="M198.51,133.44c0,3.98-1.48,6.18-4.07,6.18-2.29,0-3.83-2.14-3.87-6.01,0-3.92,1.69-6.09,4.07-6.09s3.87,2.2,3.87,5.92ZM192.16,133.62c0,3.04.94,4.77,2.38,4.77,1.62,0,2.39-1.89,2.39-4.88s-.74-4.77-2.38-4.77c-1.39,0-2.39,1.69-2.39,4.88Z"/><path class="cls-2" d="M217.72,139.42v-.97l1.24-1.21c2.99-2.84,4.34-4.36,4.36-6.12,0-1.19-.58-2.29-2.32-2.29-1.06,0-1.94.54-2.48.99l-.5-1.12c.81-.68,1.96-1.19,3.31-1.19,2.52,0,3.58,1.73,3.58,3.4,0,2.16-1.57,3.91-4.03,6.28l-.94.86v.04h5.26v1.31h-7.47Z"/><path class="cls-2" d="M226.96,139.42v-.97l1.24-1.21c2.99-2.84,4.34-4.36,4.36-6.12,0-1.19-.58-2.29-2.32-2.29-1.06,0-1.94.54-2.48.99l-.5-1.12c.81-.68,1.96-1.19,3.31-1.19,2.52,0,3.58,1.73,3.58,3.4,0,2.16-1.57,3.91-4.03,6.28l-.94.86v.04h5.26v1.31h-7.47Z"/><path class="cls-2" d="M253.51,139.42v-.97l1.24-1.21c2.99-2.84,4.34-4.36,4.36-6.12,0-1.19-.58-2.29-2.32-2.29-1.06,0-1.94.54-2.48.99l-.5-1.12c.81-.68,1.96-1.19,3.31-1.19,2.52,0,3.58,1.73,3.58,3.4,0,2.16-1.57,3.91-4.03,6.28l-.94.86v.04h5.26v1.31h-7.47Z"/><path class="cls-2" d="M267.65,139.42v-3.19h-5.44v-1.04l5.22-7.47h1.71v7.27h1.64v1.24h-1.64v3.19h-1.49ZM267.65,134.99v-3.91c0-.61.02-1.22.05-1.84h-.05c-.36.68-.65,1.19-.97,1.73l-2.86,3.98v.04h3.83Z"/><path class="cls-2" d="M294.48,139.42v-.97l1.24-1.21c2.99-2.84,4.34-4.36,4.36-6.12,0-1.19-.58-2.29-2.32-2.29-1.06,0-1.94.54-2.48.99l-.5-1.12c.81-.68,1.96-1.19,3.31-1.19,2.52,0,3.58,1.73,3.58,3.4,0,2.16-1.57,3.91-4.03,6.28l-.94.86v.04h5.26v1.31h-7.47Z"/><path class="cls-2" d="M335.44,139.42v-3.19h-5.44v-1.04l5.22-7.47h1.71v7.27h1.64v1.24h-1.64v3.19h-1.49ZM335.44,134.99v-3.91c0-.61.02-1.22.05-1.84h-.05c-.36.68-.65,1.19-.97,1.73l-2.86,3.98v.04h3.84Z"/><path class="cls-2" d="M373.22,128.83c-.32-.02-.74,0-1.19.07-2.48.41-3.8,2.23-4.07,4.16h.05c.56-.74,1.53-1.35,2.83-1.35,2.07,0,3.53,1.49,3.53,3.78,0,2.14-1.46,4.12-3.89,4.12s-4.14-1.94-4.14-4.99c0-2.3.83-4.12,1.98-5.28.97-.95,2.27-1.55,3.75-1.73.47-.07.86-.09,1.15-.09v1.3ZM372.77,135.59c0-1.67-.95-2.68-2.41-2.68-.95,0-1.84.59-2.27,1.44-.11.18-.18.41-.18.7.04,1.93.92,3.35,2.57,3.35,1.37,0,2.29-1.13,2.29-2.81Z"/><path class="cls-2" d="M402.47,136.45c0-1.48.88-2.52,2.32-3.13l-.02-.05c-1.3-.61-1.85-1.62-1.85-2.63,0-1.85,1.57-3.11,3.62-3.11,2.27,0,3.4,1.42,3.4,2.88,0,.99-.49,2.05-1.93,2.74v.05c1.46.58,2.36,1.6,2.36,3.02,0,2.03-1.75,3.4-3.98,3.4-2.45,0-3.93-1.46-3.93-3.17ZM408.78,136.38c0-1.42-.99-2.11-2.57-2.56-1.37.4-2.11,1.3-2.11,2.41-.05,1.19.85,2.23,2.34,2.23s2.34-.88,2.34-2.09ZM404.42,130.53c0,1.17.88,1.8,2.23,2.16,1.01-.34,1.78-1.06,1.78-2.12,0-.94-.56-1.91-1.98-1.91-1.31,0-2.04.86-2.04,1.87Z"/></g></svg>