<?xml version="1.0" encoding="UTF-8"?><svg id="Layer_2" xmlns="http://www.w3.org/2000/svg" xmlns:xlink="http://www.w3.org/1999/xlink" viewBox="0 0 422.38 130.04"><defs><style>.cls-1{fill:url(#linear-gradient);}.cls-1,.cls-2,.cls-3,.cls-4,.cls-5,.cls-6{stroke-width:0px;}.cls-2{fill:#fcee21;}.cls-4{fill:#009245;}.cls-5{fill:#f15a24;}.cls-6{fill:blue;}</style><linearGradient id="linear-gradient" x1="-6.29" y1="59.22" x2="395.06" y2="59.22" gradientUnits="userSpaceOnUse"><stop offset="0" stop-color="#f15a24"/><stop offset=".28" stop-color="#fcee21"/><stop offset=".5" stop-color="#8cc63f"/><stop offset=".53" stop-color="#87bf45"/><stop offset=".56" stop-color="#7aac57"/><stop offset=".6" stop-color="#648e75"/><stop offset=".65" stop-color="#46639e"/><stop offset=".7" stop-color="#202dd2"/><stop offset=".74" stop-color="blue"/><stop offset=".81" stop-color="#0f30ce"/><stop offset=".98" stop-color="#35a955"/><stop offset="1" stop-color="#39b54a"/></linearGradient></defs><g id="Layer_1-2"><path class="cls-1" d="M339.34,91.08c-58.17,0-134.65-25.63-187.88-43.48-21.01-7.04-37.61-12.61-48.33-15.03C51.17,20.81,11.28,45.19,10.88,45.44l-1.06-1.7c.4-.25,40.96-25.08,93.75-13.13,10.81,2.45,27.45,8.03,48.52,15.09,81.54,27.33,218.02,73.08,257.44,16.32l1.64,1.14c-14.15,20.38-40.31,27.91-71.84,27.91Z"/><circle class="cls-5" cx="10.85" cy="44.09" r="4"/><circle class="cls-2" cx="66.85" cy="29.09" r="4"/><circle class="cls-6" cx="338.85" cy="90.09" r="4"/><circle class="cls-4" cx="410.85" cy="63.09" r="4"/><path class="cls-3" d="M8.21,1.48h-4.1V0h9.98v1.48h-4.12v12h-1.76V1.48Z"/><path class="cls-3" d="M15.09,8.96c.04,2.38,1.56,3.36,3.32,3.36,1.26,0,2.02-.22,2.68-.5l.3,1.26c-.62.28-1.68.6-3.22.6-2.98,0-4.76-1.96-4.76-4.88s1.72-5.22,4.54-5.22c3.16,0,4,2.78,4,4.56,0,.36-.04.64-.06.82h-6.8ZM20.25,7.7c.02-1.12-.46-2.86-2.44-2.86-1.78,0-2.56,1.64-2.7,2.86h5.14Z"/><path class="cls-3" d="M24.13,6.42c0-1-.02-1.82-.08-2.62h1.54l.08,1.56h.06c.54-.92,1.44-1.78,3.04-1.78,1.32,0,2.32.8,2.74,1.94h.04c.3-.54.68-.96,1.08-1.26.58-.44,1.22-.68,2.14-.68,1.28,0,3.18.84,3.18,4.2v5.7h-1.72v-5.48c0-1.86-.68-2.98-2.1-2.98-1,0-1.78.74-2.08,1.6-.08.24-.14.56-.14.88v5.98h-1.72v-5.8c0-1.54-.68-2.66-2.02-2.66-1.1,0-1.9.88-2.18,1.76-.1.26-.14.56-.14.86v5.84h-1.72v-7.06Z"/><path class="cls-3" d="M40.81,6.96c0-1.24-.04-2.24-.08-3.16h1.58l.08,1.66h.04c.72-1.18,1.86-1.88,3.44-1.88,2.34,0,4.1,1.98,4.1,4.92,0,3.48-2.12,5.2-4.4,5.2-1.28,0-2.4-.56-2.98-1.52h-.04v5.26h-1.74V6.96ZM42.55,9.54c0,.26.04.5.08.72.32,1.22,1.38,2.06,2.64,2.06,1.86,0,2.94-1.52,2.94-3.74,0-1.94-1.02-3.6-2.88-3.6-1.2,0-2.32.86-2.66,2.18-.06.22-.12.48-.12.72v1.66Z"/><path class="cls-3" d="M53.17,8.96c.04,2.38,1.56,3.36,3.32,3.36,1.26,0,2.02-.22,2.68-.5l.3,1.26c-.62.28-1.68.6-3.22.6-2.98,0-4.76-1.96-4.76-4.88s1.72-5.22,4.54-5.22c3.16,0,4,2.78,4,4.56,0,.36-.04.64-.06.82h-6.8ZM58.33,7.7c.02-1.12-.46-2.86-2.44-2.86-1.78,0-2.56,1.64-2.7,2.86h5.14Z"/><path class="cls-3" d="M62.21,6.82c0-1.14-.02-2.12-.08-3.02h1.54l.06,1.9h.08c.44-1.3,1.5-2.12,2.68-2.12.2,0,.34.02.5.06v1.66c-.18-.04-.36-.06-.6-.06-1.24,0-2.12.94-2.36,2.26-.04.24-.08.52-.08.82v5.16h-1.74v-6.66Z"/><path class="cls-3" d="M74.01,13.48l-.14-1.22h-.06c-.54.76-1.58,1.44-2.96,1.44-1.96,0-2.96-1.38-2.96-2.78,0-2.34,2.08-3.62,5.82-3.6v-.2c0-.8-.22-2.24-2.2-2.24-.9,0-1.84.28-2.52.72l-.4-1.16c.8-.52,1.96-.86,3.18-.86,2.96,0,3.68,2.02,3.68,3.96v3.62c0,.84.04,1.66.16,2.32h-1.6ZM73.75,8.54c-1.92-.04-4.1.3-4.1,2.18,0,1.14.76,1.68,1.66,1.68,1.26,0,2.06-.8,2.34-1.62.06-.18.1-.38.1-.56v-1.68Z"/><path class="cls-3" d="M80.33,1.02v2.78h2.52v1.34h-2.52v5.22c0,1.2.34,1.88,1.32,1.88.46,0,.8-.06,1.02-.12l.08,1.32c-.34.14-.88.24-1.56.24-.82,0-1.48-.26-1.9-.74-.5-.52-.68-1.38-.68-2.52v-5.28h-1.5v-1.34h1.5V1.48l1.72-.46Z"/><path class="cls-3" d="M92.93,10.84c0,1,.02,1.88.08,2.64h-1.56l-.1-1.58h-.04c-.46.78-1.48,1.8-3.2,1.8-1.52,0-3.34-.84-3.34-4.24V3.8h1.76v5.36c0,1.84.56,3.08,2.16,3.08,1.18,0,2-.82,2.32-1.6.1-.26.16-.58.16-.9V3.8h1.76v7.04Z"/><path class="cls-3" d="M95.85,6.82c0-1.14-.02-2.12-.08-3.02h1.54l.06,1.9h.08c.44-1.3,1.5-2.12,2.68-2.12.2,0,.34.02.5.06v1.66c-.18-.04-.36-.06-.6-.06-1.24,0-2.12.94-2.36,2.26-.04.24-.08.52-.08.82v5.16h-1.74v-6.66Z"/><path class="cls-3" d="M103.17,8.96c.04,2.38,1.56,3.36,3.32,3.36,1.26,0,2.02-.22,2.68-.5l.3,1.26c-.62.28-1.68.6-3.22.6-2.98,0-4.76-1.96-4.76-4.88s1.72-5.22,4.54-5.22c3.16,0,4,2.78,4,4.56,0,.36-.04.64-.06.82h-6.8ZM108.33,7.7c.02-1.12-.46-2.86-2.44-2.86-1.78,0-2.56,1.64-2.7,2.86h5.14Z"/><path class="cls-3" d="M5.35,70.79c-3.44,0-5.35-2.5-5.35-6.91,0-4.8,2.03-7.66,5.47-7.66,1.64,0,3.28.66,4.45,1.76l-.62,1.29c-1.33-1.13-2.5-1.64-3.79-1.64-2.46,0-3.87,2.3-3.87,6.21v.31c.62-1.52,2.07-2.46,3.87-2.46,2.62,0,4.45,1.88,4.45,4.53s-1.95,4.57-4.61,4.57ZM5.27,63.05c-1.88,0-3.16,1.33-3.16,3.16s1.29,3.2,3.16,3.2,3.05-1.25,3.05-3.2-1.25-3.16-3.05-3.16Z"/><path class="cls-3" d="M17.5,70.79c-3.44,0-5.35-2.5-5.35-6.91,0-4.8,2.03-7.66,5.47-7.66,1.64,0,3.28.66,4.45,1.76l-.62,1.29c-1.33-1.13-2.5-1.64-3.79-1.64-2.46,0-3.87,2.3-3.87,6.21v.31c.62-1.52,2.07-2.46,3.87-2.46,2.62,0,4.45,1.88,4.45,4.53s-1.95,4.57-4.61,4.57ZM17.42,63.05c-1.88,0-3.16,1.33-3.16,3.16s1.29,3.2,3.16,3.2,3.05-1.25,3.05-3.2-1.25-3.16-3.05-3.16Z"/><path class="cls-3" d="M55.2,40.78v-1.41h9.41v1.25l-6.68,13.01h-1.76l6.64-12.85h-7.62Z"/><path class="cls-3" d="M72.11,53.79c-1.72,0-3.52-.66-4.69-1.76l.62-1.29c1.33,1.09,2.7,1.64,4.06,1.64,1.99,0,3.2-1.21,3.2-3.16s-1.21-3.16-3.09-3.16c-1.37,0-2.42.59-3.24,1.68h-1.13v-8.36h8.52v1.37h-6.88v5.08c.78-.74,1.8-1.13,3.01-1.13,2.7,0,4.45,1.84,4.45,4.53s-1.91,4.57-4.84,4.57Z"/><path class="cls-3" d="M405.35,53.79c-3.44,0-5.35-2.5-5.35-6.91,0-4.8,2.03-7.66,5.47-7.66,1.64,0,3.28.66,4.45,1.76l-.62,1.29c-1.33-1.13-2.5-1.64-3.79-1.64-2.46,0-3.87,2.3-3.87,6.21v.31c.62-1.52,2.07-2.46,3.87-2.46,2.62,0,4.45,1.88,4.45,4.53s-1.95,4.57-4.61,4.57ZM405.27,46.05c-1.88,0-3.16,1.33-3.16,3.16s1.29,3.2,3.16,3.2,3.05-1.25,3.05-3.2-1.25-3.16-3.05-3.16Z"/><path class="cls-3" d="M420.23,49.18h2.15v1.37h-2.15v3.09h-1.64v-3.09h-6.56v-1.25l6.88-9.92h1.33v9.8ZM418.59,42.18l-4.84,6.99h4.84v-6.99Z"/><path class="cls-3" d="M338.12,69.74h-4.96l-.5,3.34c.3-.04.58-.08,1.06-.08,1,0,2,.22,2.8.7,1.02.58,1.86,1.7,1.86,3.34,0,2.54-2.02,4.44-4.84,4.44-1.42,0-2.62-.4-3.24-.8l.44-1.34c.54.32,1.6.72,2.78.72,1.66,0,3.08-1.08,3.08-2.82-.02-1.68-1.14-2.88-3.74-2.88-.74,0-1.32.08-1.8.14l.84-6.24h6.22v1.48Z"/><path class="cls-3" d="M340.46,77.96c0-1.64.98-2.8,2.58-3.48l-.02-.06c-1.44-.68-2.06-1.8-2.06-2.92,0-2.06,1.74-3.46,4.02-3.46,2.52,0,3.78,1.58,3.78,3.2,0,1.1-.54,2.28-2.14,3.04v.06c1.62.64,2.62,1.78,2.62,3.36,0,2.26-1.94,3.78-4.42,3.78-2.72,0-4.36-1.62-4.36-3.52ZM347.46,77.88c0-1.58-1.1-2.34-2.86-2.84-1.52.44-2.34,1.44-2.34,2.68-.06,1.32.94,2.48,2.6,2.48s2.6-.98,2.6-2.32ZM342.62,71.38c0,1.3.98,2,2.48,2.4,1.12-.38,1.98-1.18,1.98-2.36,0-1.04-.62-2.12-2.2-2.12-1.46,0-2.26.96-2.26,2.08Z"/><path class="cls-3" d="M13.23,118.29h-4.96l-.5,3.34c.3-.04.58-.08,1.06-.08,1,0,2,.22,2.8.7,1.02.58,1.86,1.7,1.86,3.34,0,2.54-2.02,4.44-4.84,4.44-1.42,0-2.62-.4-3.24-.8l.44-1.34c.54.32,1.6.72,2.78.72,1.66,0,3.08-1.08,3.08-2.82-.02-1.68-1.14-2.88-3.74-2.88-.74,0-1.32.08-1.8.14l.84-6.24h6.22v1.48Z"/><path class="cls-3" d="M24.37,123.17c0,4.42-1.64,6.86-4.52,6.86-2.54,0-4.26-2.38-4.3-6.68,0-4.36,1.88-6.76,4.52-6.76s4.3,2.44,4.3,6.58ZM17.31,123.38c0,3.38,1.04,5.3,2.64,5.3,1.8,0,2.66-2.1,2.66-5.42s-.82-5.3-2.64-5.3c-1.54,0-2.66,1.88-2.66,5.42Z"/><path class="cls-3" d="M49.37,118.29h-4.96l-.5,3.34c.3-.04.58-.08,1.06-.08,1,0,2,.22,2.8.7,1.02.58,1.86,1.7,1.86,3.34,0,2.54-2.02,4.44-4.84,4.44-1.42,0-2.62-.4-3.24-.8l.44-1.34c.54.32,1.6.72,2.78.72,1.66,0,3.08-1.08,3.08-2.82-.02-1.68-1.14-2.88-3.74-2.88-.74,0-1.32.08-1.8.14l.84-6.24h6.22v1.48Z"/><path class="cls-3" d="M59.63,118.29h-4.96l-.5,3.34c.3-.04.58-.08,1.06-.08,1,0,2,.22,2.8.7,1.02.58,1.86,1.7,1.86,3.34,0,2.54-2.02,4.44-4.84,4.44-1.42,0-2.62-.4-3.24-.8l.44-1.34c.54.32,1.6.72,2.78.72,1.66,0,3.08-1.08,3.08-2.82-.02-1.68-1.14-2.88-3.74-2.88-.74,0-1.32.08-1.8.14l.84-6.24h6.22v1.48Z"/><path class="cls-3" d="M84.62,118.05c-.36-.02-.82,0-1.32.08-2.76.46-4.22,2.48-4.52,4.62h.06c.62-.82,1.7-1.5,3.14-1.5,2.3,0,3.92,1.66,3.92,4.2,0,2.38-1.62,4.58-4.32,4.58s-4.6-2.16-4.6-5.54c0-2.56.92-4.58,2.2-5.86,1.08-1.06,2.52-1.72,4.16-1.92.52-.08.96-.1,1.28-.1v1.44ZM84.12,125.56c0-1.86-1.06-2.98-2.68-2.98-1.06,0-2.04.66-2.52,1.6-.12.2-.2.46-.2.78.04,2.14,1.02,3.72,2.86,3.72,1.52,0,2.54-1.26,2.54-3.12Z"/><path class="cls-3" d="M96.1,123.17c0,4.42-1.64,6.86-4.52,6.86-2.54,0-4.26-2.38-4.3-6.68,0-4.36,1.88-6.76,4.52-6.76s4.3,2.44,4.3,6.58ZM89.04,123.38c0,3.38,1.04,5.3,2.64,5.3,1.8,0,2.66-2.1,2.66-5.42s-.82-5.3-2.64-5.3c-1.54,0-2.66,1.88-2.66,5.42Z"/><path class="cls-3" d="M120.76,118.05c-.36-.02-.82,0-1.32.08-2.76.46-4.22,2.48-4.52,4.62h.06c.62-.82,1.7-1.5,3.14-1.5,2.3,0,3.92,1.66,3.92,4.2,0,2.38-1.62,4.58-4.32,4.58s-4.6-2.16-4.6-5.54c0-2.56.92-4.58,2.2-5.86,1.08-1.06,2.52-1.72,4.16-1.92.52-.08.96-.1,1.28-.1v1.44ZM120.26,125.56c0-1.86-1.06-2.98-2.68-2.98-1.06,0-2.04.66-2.52,1.6-.12.2-.2.46-.2.78.04,2.14,1.02,3.72,2.86,3.72,1.52,0,2.54-1.26,2.54-3.12Z"/><path class="cls-3" d="M131.36,118.29h-4.96l-.5,3.34c.3-.04.58-.08,1.06-.08,1,0,2,.22,2.8.7,1.02.58,1.86,1.7,1.86,3.34,0,2.54-2.02,4.44-4.84,4.44-1.42,0-2.62-.4-3.24-.8l.44-1.34c.54.32,1.6.72,2.78.72,1.66,0,3.08-1.08,3.08-2.82-.02-1.68-1.14-2.88-3.74-2.88-.74,0-1.32.08-1.8.14l.84-6.24h6.22v1.48Z"/><path class="cls-3" d="M157.06,116.81v1.16l-5.66,11.84h-1.82l5.64-11.5v-.04h-6.36v-1.46h8.2Z"/><path class="cls-3" d="M167.52,123.17c0,4.42-1.64,6.86-4.52,6.86-2.54,0-4.26-2.38-4.3-6.68,0-4.36,1.88-6.76,4.52-6.76s4.3,2.44,4.3,6.58ZM160.46,123.38c0,3.38,1.04,5.3,2.64,5.3,1.8,0,2.66-2.1,2.66-5.42s-.82-5.3-2.64-5.3c-1.54,0-2.66,1.88-2.66,5.42Z"/><path class="cls-3" d="M193.19,116.81v1.16l-5.66,11.84h-1.82l5.64-11.5v-.04h-6.36v-1.46h8.2Z"/><path class="cls-3" d="M202.77,118.29h-4.96l-.5,3.34c.3-.04.58-.08,1.06-.08,1,0,2,.22,2.8.7,1.02.58,1.86,1.7,1.86,3.34,0,2.54-2.02,4.44-4.84,4.44-1.42,0-2.62-.4-3.24-.8l.44-1.34c.54.32,1.6.72,2.78.72,1.66,0,3.08-1.08,3.08-2.82-.02-1.68-1.14-2.88-3.74-2.88-.74,0-1.32.08-1.8.14l.84-6.24h6.22v1.48Z"/><path class="cls-3" d="M228.71,116.81v1.16l-5.66,11.84h-1.82l5.64-11.5v-.04h-6.36v-1.46h8.2Z"/><path class="cls-3" d="M239.17,123.17c0,4.42-1.64,6.86-4.52,6.86-2.54,0-4.26-2.38-4.3-6.68,0-4.36,1.88-6.76,4.52-6.76s4.3,2.44,4.3,6.58ZM232.1,123.38c0,3.38,1.04,5.3,2.64,5.3,1.8,0,2.66-2.1,2.66-5.42s-.82-5.3-2.64-5.3c-1.54,0-2.66,1.88-2.66,5.42Z"/><path class="cls-3" d="M264.05,118.05c-.36-.02-.82,0-1.32.08-2.76.46-4.22,2.48-4.52,4.62h.06c.62-.82,1.7-1.5,3.14-1.5,2.3,0,3.92,1.66,3.92,4.2,0,2.38-1.62,4.58-4.32,4.58s-4.6-2.16-4.6-5.54c0-2.56.92-4.58,2.2-5.86,1.08-1.06,2.52-1.72,4.16-1.92.52-.08.96-.1,1.28-.1v1.44ZM263.55,125.56c0-1.86-1.06-2.98-2.68-2.98-1.06,0-2.04.66-2.52,1.6-.12.2-.2.46-.2.78.04,2.14,1.02,3.72,2.86,3.72,1.52,0,2.54-1.26,2.54-3.12Z"/><path class="cls-3" d="M274.65,118.29h-4.96l-.5,3.34c.3-.04.58-.08,1.06-.08,1,0,2,.22,2.8.7,1.02.58,1.86,1.7,1.86,3.34,0,2.54-2.02,4.44-4.84,4.44-1.42,0-2.62-.4-3.24-.8l.44-1.34c.54.32,1.6.72,2.78.72,1.66,0,3.08-1.08,3.08-2.82-.02-1.68-1.14-2.88-3.74-2.88-.74,0-1.32.08-1.8.14l.84-6.24h6.22v1.48Z"/><path class="cls-3" d="M299.56,118.05c-.36-.02-.82,0-1.32.08-2.76.46-4.22,2.48-4.52,4.62h.06c.62-.82,1.7-1.5,3.14-1.5,2.3,0,3.92,1.66,3.92,4.2,0,2.38-1.62,4.58-4.32,4.58s-4.6-2.16-4.6-5.54c0-2.56.92-4.58,2.2-5.86,1.08-1.06,2.52-1.72,4.16-1.92.52-.08.96-.1,1.28-.1v1.44ZM299.06,125.56c0-1.86-1.06-2.98-2.68-2.98-1.06,0-2.04.66-2.52,1.6-.12.2-.2.46-.2.78.04,2.14,1.02,3.72,2.86,3.72,1.52,0,2.54-1.26,2.54-3.12Z"/><path class="cls-3" d="M311.04,123.17c0,4.42-1.64,6.86-4.52,6.86-2.54,0-4.26-2.38-4.3-6.68,0-4.36,1.88-6.76,4.52-6.76s4.3,2.44,4.3,6.58ZM303.98,123.38c0,3.38,1.04,5.3,2.64,5.3,1.8,0,2.66-2.1,2.66-5.42s-.82-5.3-2.64-5.3c-1.54,0-2.66,1.88-2.66,5.42Z"/><path class="cls-3" d="M335.66,118.29h-4.96l-.5,3.34c.3-.04.58-.08,1.06-.08,1,0,2,.22,2.8.7,1.02.58,1.86,1.7,1.86,3.34,0,2.54-2.02,4.44-4.84,4.44-1.42,0-2.62-.4-3.24-.8l.44-1.34c.54.32,1.6.72,2.78.72,1.66,0,3.08-1.08,3.08-2.82-.02-1.68-1.14-2.88-3.74-2.88-.74,0-1.32.08-1.8.14l.84-6.24h6.22v1.48Z"/><path class="cls-3" d="M338,126.52c0-1.64.98-2.8,2.58-3.48l-.02-.06c-1.44-.68-2.06-1.8-2.06-2.92,0-2.06,1.74-3.46,4.02-3.46,2.52,0,3.78,1.58,3.78,3.2,0,1.1-.54,2.28-2.14,3.04v.06c1.62.64,2.62,1.78,2.62,3.36,0,2.26-1.94,3.78-4.42,3.78-2.72,0-4.36-1.62-4.36-3.52ZM345,126.44c0-1.58-1.1-2.34-2.86-2.84-1.52.44-2.34,1.44-2.34,2.68-.06,1.32.94,2.48,2.6,2.48s2.6-.98,2.6-2.32ZM340.16,119.93c0,1.3.98,2,2.48,2.4,1.12-.38,1.98-1.18,1.98-2.36,0-1.04-.62-2.12-2.2-2.12-1.46,0-2.26.96-2.26,2.08Z"/><path class="cls-3" d="M371.21,118.05c-.36-.02-.82,0-1.32.08-2.76.46-4.22,2.48-4.52,4.62h.06c.62-.82,1.7-1.5,3.14-1.5,2.3,0,3.92,1.66,3.92,4.2,0,2.38-1.62,4.58-4.32,4.58s-4.6-2.16-4.6-5.54c0-2.56.92-4.58,2.2-5.86,1.08-1.06,2.52-1.72,4.16-1.92.52-.08.96-.1,1.28-.1v1.44ZM370.71,125.56c0-1.86-1.06-2.98-2.68-2.98-1.06,0-2.04.66-2.52,1.6-.12.2-.2.46-.2.78.04,2.14,1.02,3.72,2.86,3.72,1.52,0,2.54-1.26,2.54-3.12Z"/><path class="cls-3" d="M382.69,123.17c0,4.42-1.64,6.86-4.52,6.86-2.54,0-4.26-2.38-4.3-6.68,0-4.36,1.88-6.76,4.52-6.76s4.3,2.44,4.3,6.58ZM375.63,123.38c0,3.38,1.04,5.3,2.64,5.3,1.8,0,2.66-2.1,2.66-5.42s-.82-5.3-2.64-5.3c-1.54,0-2.66,1.88-2.66,5.42Z"/><path class="cls-3" d="M406.89,118.05c-.36-.02-.82,0-1.32.08-2.76.46-4.22,2.48-4.52,4.62h.06c.62-.82,1.7-1.5,3.14-1.5,2.3,0,3.92,1.66,3.92,4.2,0,2.38-1.62,4.58-4.32,4.58s-4.6-2.16-4.6-5.54c0-2.56.92-4.58,2.2-5.86,1.08-1.06,2.52-1.72,4.16-1.92.52-.08.96-.1,1.28-.1v1.44ZM406.39,125.56c0-1.86-1.06-2.98-2.68-2.98-1.06,0-2.04.66-2.52,1.6-.12.2-.2.46-.2.78.04,2.14,1.02,3.72,2.86,3.72,1.52,0,2.54-1.26,2.54-3.12Z"/><path class="cls-3" d="M415.17,129.82v-3.54h-6.04v-1.16l5.8-8.3h1.9v8.08h1.82v1.38h-1.82v3.54h-1.66ZM415.17,124.9v-4.34c0-.68.02-1.36.06-2.04h-.06c-.4.76-.72,1.32-1.08,1.92l-3.18,4.42v.04h4.26Z"/></g></svg>