<?xml version="1.0" encoding="UTF-8"?><svg id="Layer_2" xmlns="http://www.w3.org/2000/svg" viewBox="0 0 7.69 4.95"><defs><style>.cls-1{fill:#fff;stroke-width:0px;}</style></defs><g id="Layer_1-2"><path class="cls-1" d="M2.93,3.19c.05-.09.02-.2-.07-.26h0s.04-.08.04-.08c.05-.09.02-.2-.07-.26-.03-.02-.06-.02-.09-.02-.06,0-.13.03-.16.09l-.04.07-.66-.38.66-.38.04.07c.04.06.1.09.16.09.03,0,.06,0,.09-.02.09-.05.12-.17.07-.26l-.04-.07h0c.09-.06.12-.17.07-.26-.03-.06-.1-.09-.16-.09-.03,0-.06,0-.09.02h0s-.04-.07-.04-.07c-.04-.06-.1-.09-.16-.09-.03,0-.06,0-.09.02-.09.05-.12.17-.07.26l.04.07-.66.38v-.81h.08c.1,0,.19-.08.19-.19s-.08-.19-.19-.19h-.08c0-.11-.08-.19-.19-.19s-.19.08-.19.19h0s-.08,0-.08,0c-.1,0-.19.08-.19.19s.08.19.19.19h.08v.81l-.7-.4.04-.07c.05-.09.02-.2-.07-.26-.03-.02-.06-.02-.09-.02-.06,0-.13.03-.16.09l-.04.07h0s-.06-.03-.09-.03c-.06,0-.13.03-.16.09-.05.09-.02.2.07.26h0s-.04.08-.04.08c-.05.09-.02.2.07.26.03.02.06.02.09.02.06,0,.13-.03.16-.09l.04-.07.7.4-.7.4-.04-.07c-.04-.06-.1-.09-.16-.09-.03,0-.06,0-.09.02-.09.05-.12.17-.07.26l.04.07h0c-.09.06-.12.17-.07.26.04.06.1.09.16.09.03,0,.06,0,.09-.02h0s.04.07.04.07c.04.06.1.09.16.09.03,0,.06,0,.09-.02.09-.05.12-.17.07-.26l-.04-.07.7-.4v.77h-.08c-.1,0-.19.08-.19.19s.08.19.19.19h.08c0,.11.08.19.19.19s.19-.08.19-.19h0s.08,0,.08,0c.1,0,.19-.08.19-.19s-.08-.19-.19-.19h-.08v-.77l.66.38-.04.07c-.05.09-.02.2.07.26.03.02.06.02.09.02.06,0,.13-.03.16-.09l.04-.07h0s.06.03.09.03c.07,0,.13-.03.16-.09Z"/><path class="cls-1" d="M4.94,3.32c.44-.15.81-.12,1.03.08.16.16.22.41.15.65-.08.27-.3.46-.6.51-.71.14-.92-.49-.94-.56-.03-.1-.13-.15-.22-.13-.1.03-.15.13-.13.23.09.32.43.85,1.1.85.08,0,.17,0,.27-.03.44-.08.77-.37.88-.77.11-.37.01-.76-.25-1.01-.18-.18-.61-.43-1.4-.16-.74.25-1.25.27-1.69.23-.06.12-.14.24-.23.34.51.07,1.13.09,2.04-.22Z"/><path class="cls-1" d="M7.67,1.3c-.08-.46-.46-.79-.94-.82-.42-.02-.99.2-1.21.92-.03.1.02.2.12.23.1.03.2-.02.23-.12.16-.52.55-.68.84-.66.24.02.54.16.6.52.06.33-.02.61-.22.79-.17.15-.41.2-.63.13-.84-.26-1.28-.14-1.75,0-.25.07-.52.14-.87.17-.2.01-.36,0-.49-.02,0,.12-.02.24-.05.36.1.02.22.03.35.03.07,0,.14,0,.21,0,.39-.03.68-.11.94-.18.46-.12.81-.22,1.55,0,.34.1.71.02.98-.21.29-.26.42-.67.34-1.12Z"/><path class="cls-1" d="M3.72,1.99c.07,0,.13,0,.2,0,.62,0,1.12-.29,1.36-.82.15-.32.13-.63-.05-.87-.18-.24-.49-.35-.81-.3-.39.07-.71.37-.86.84-.03.1.02.2.12.23.1.03.2-.02.23-.12.11-.33.32-.55.57-.59.18-.03.36.03.46.16.1.13.1.3.01.49-.28.6-.87.63-1.2.6-.22-.02-.4-.06-.58-.11,0,0,0,0,0,0,.06.13.11.26.14.4.13.03.26.05.41.06Z"/></g></svg>