<?xml version="1.0" encoding="UTF-8"?><svg id="Layer_2" xmlns="http://www.w3.org/2000/svg" viewBox="0 0 4.49 3.28"><defs><style>.cls-1{fill:#fff;stroke-width:0px;}</style></defs><g id="Layer_1-2"><path class="cls-1" d="M2.89,2.56c-.86,0-1.56-.7-1.56-1.56,0-.32.1-.62.26-.86-.58.25-.98.83-.98,1.5,0,.91.73,1.64,1.64,1.64.67,0,1.25-.4,1.5-.98-.25.16-.54.26-.86.26Z"/><polygon class="cls-1" points="3.68 .3 3.76 .62 3.68 .95 3.59 .62 3.68 .3"/><polygon class="cls-1" points="4 .62 3.68 .71 3.35 .62 3.68 .54 4 .62"/><polygon class="cls-1" points="4.31 0 4.35 .19 4.31 .37 4.26 .19 4.31 0"/><polygon class="cls-1" points="4.49 .19 4.31 .23 4.12 .19 4.31 .14 4.49 .19"/><polygon class="cls-1" points=".19 .1 .23 .28 .19 .47 .14 .28 .19 .1"/><polygon class="cls-1" points=".37 .28 .19 .33 0 .28 .19 .23 .37 .28"/></g></svg>