<?xml version="1.0" encoding="UTF-8"?><svg id="Layer_2" xmlns="http://www.w3.org/2000/svg" viewBox="0 0 6.56 6.38"><defs><style>.cls-1{fill:#fff;}.cls-1,.cls-2{stroke-width:0px;}.cls-2{fill:#1e689e;}</style></defs><g id="Layer_1-2"><path class="cls-2" d="M1.45,1.53s.01,0,.02,0c-.01-.06-.02-.13-.02-.2,0-.49.4-.89.89-.89.2,0,.39.07.54.18.26-.38.69-.62,1.18-.62.79,0,1.43.64,1.43,1.43,0,.11-.01.21-.04.31.63.12,1.11.67,1.11,1.33,0,.75-.61,1.36-1.36,1.36H1.45c-.8,0-1.45-.65-1.45-1.45s.65-1.45,1.45-1.45Z"/><path class="cls-1" d="M3.13,4.4c.03-.06.01-.13-.05-.17h0s.03-.05.03-.05c.03-.06.01-.13-.04-.17-.02-.01-.04-.02-.06-.02-.04,0-.08.02-.11.06l-.03.05-.43-.25.43-.25.03.05s.06.06.11.06c.02,0,.04,0,.06-.02.06-.03.08-.11.04-.17l-.03-.05h0c.06-.04.08-.11.05-.17-.02-.04-.06-.06-.11-.06-.02,0-.04,0-.06.02h0s-.03-.04-.03-.04c-.02-.04-.06-.06-.11-.06-.02,0-.04,0-.06.02-.06.03-.08.11-.04.17l.03.05-.43.25v-.52h.05c.07,0,.12-.05.12-.12s-.05-.12-.12-.12h-.05c0-.07-.05-.13-.12-.13s-.12.05-.12.12h0s-.05,0-.05,0c-.07,0-.12.05-.12.12s.05.12.12.12h.05v.52l-.45-.26.03-.05c.03-.06.01-.13-.04-.17-.02-.01-.04-.02-.06-.02-.04,0-.08.02-.11.06l-.03.05h0s-.04-.02-.06-.02c-.04,0-.08.02-.11.06-.03.06-.01.13.04.17h0s-.03.05-.03.05c-.03.06-.01.13.04.17.02.01.04.02.06.02.04,0,.08-.02.11-.06l.03-.05.45.26-.45.26-.03-.05s-.06-.06-.11-.06c-.02,0-.04,0-.06.02-.06.03-.08.11-.04.17l.03.05h0c-.06.04-.08.11-.04.17.02.04.06.06.11.06.02,0,.04,0,.06-.02h0s.03.04.03.04c.02.04.06.06.11.06.02,0,.04,0,.06-.02.06-.03.08-.11.04-.17l-.03-.05.46-.26v.5h-.05c-.07,0-.12.05-.12.12s.05.12.12.12h.05c0,.07.05.13.12.13s.12-.05.12-.12h0s.05,0,.05,0c.07,0,.12-.05.12-.12s-.05-.12-.12-.12h-.05v-.5l.43.25-.03.05c-.03.06-.01.13.04.17.02.01.04.02.06.02.04,0,.08-.02.11-.06l.03-.05h0s.04.02.06.02c.04,0,.08-.02.11-.06Z"/><path class="cls-1" d="M5.14,3.64s-.04-.07-.08-.07c0,0-.01,0-.02,0h-.01s0-.05,0-.05c0-.04-.04-.07-.08-.07,0,0-.01,0-.02,0-.05,0-.08.06-.07.1v.05s-.39.08-.39.08l.14-.4.05.02s.02,0,.02,0h0s.07-.02.08-.06c.02-.05,0-.1-.05-.11l-.05-.02h0c.02-.06,0-.1-.05-.12,0,0-.02,0-.03,0-.04,0-.07.02-.08.06h0s-.05,0-.05,0c0,0-.02,0-.03,0-.04,0-.07.02-.08.06-.02.05,0,.1.05.11l.05.02-.14.4-.28-.32.04-.03s.04-.09,0-.12c-.02-.02-.04-.03-.07-.03-.02,0-.04,0-.06.02l-.04.03h0s-.04-.04-.07-.04c-.02,0-.04,0-.06.02-.04.03-.04.09,0,.12h0s-.04.04-.04.04c-.04.03-.04.09,0,.12.02.02.04.03.06.03h0s.04,0,.06-.02l.04-.03.28.32-.42.08v-.05s-.05-.07-.09-.07c0,0-.01,0-.02,0-.05,0-.08.06-.07.1v.05s0,0,0,0c-.05,0-.08.06-.07.1,0,.04.04.07.08.07h0s.01,0,.02,0h0s0,.05,0,.05c0,.04.04.07.08.07h0s.01,0,.02,0c.05,0,.08-.06.07-.1v-.05s.41-.08.41-.08l-.13.38-.05-.02s-.02,0-.03,0c-.04,0-.07.02-.08.06-.02.05,0,.1.05.11l.05.02h0c-.02.06,0,.11.05.12,0,0,.02,0,.02,0,0,0,0,0,0,0,.04,0,.07-.02.08-.06h0s.05,0,.05,0c0,0,.02,0,.02,0h0s.07-.02.08-.06c.02-.05,0-.1-.05-.11l-.05-.02.13-.38.27.3-.04.03s-.04.09,0,.12c.02.02.04.03.06.03,0,0,0,0,0,0,.02,0,.04,0,.06-.02l.04-.03h0s.04.04.06.04h0s.04,0,.06-.02c.04-.03.04-.09,0-.12h0s.04-.04.04-.04c.04-.03.04-.09,0-.12-.02-.02-.04-.03-.07-.03-.02,0-.04,0-.06.02l-.04.03-.27-.3.4-.08v.05s.05.07.09.07h0s.01,0,.02,0c.05,0,.08-.06.07-.1v-.05s0,0,0,0c.05,0,.08-.06.07-.1Z"/><path class="cls-1" d="M4.73,5.19h-.06v-.06s-.04-.09-.09-.09-.09.04-.09.09v.06h-.06s-.09.04-.09.09.04.09.09.09h.06v.06s.04.09.09.09.09-.04.09-.09v-.06h.06s.09-.04.09-.09-.04-.09-.09-.09Z"/><path class="cls-1" d="M3.64,6.06h-.06v-.06s-.04-.09-.09-.09-.09.04-.09.09v.06h-.06s-.09.04-.09.09.04.09.09.09h.06v.06s.04.09.09.09.09-.04.09-.09v-.06h.06s.09-.04.09-.09-.04-.09-.09-.09Z"/><path class="cls-1" d="M3.21,5.16h-.06v-.06s-.04-.09-.09-.09-.09.04-.09.09v.06h-.06s-.09.04-.09.09.04.09.09.09h.06v.06s.04.09.09.09.09-.04.09-.09v-.06h.06s.09-.04.09-.09-.04-.09-.09-.09Z"/><path class="cls-1" d="M2.02,5.59h-.06v-.06s-.04-.09-.09-.09-.09.04-.09.09v.06h-.06s-.09.04-.09.09.04.09.09.09h.06v.06s.04.09.09.09.09-.04.09-.09v-.06h.06s.09-.04.09-.09-.04-.09-.09-.09Z"/></g></svg>