<?xml version="1.0" encoding="UTF-8"?><svg id="Layer_2" xmlns="http://www.w3.org/2000/svg" viewBox="0 0 6.56 5.49"><defs><style>.cls-1{fill:#1e689e;stroke-width:0px;}</style></defs><g id="Layer_1-2"><path class="cls-1" d="M1.45,1.53s.01,0,.02,0c-.01-.06-.02-.13-.02-.2,0-.49.4-.89.89-.89.2,0,.39.07.54.18.26-.38.69-.62,1.18-.62.79,0,1.43.64,1.43,1.43,0,.11-.01.21-.04.31.63.12,1.11.67,1.11,1.33,0,.75-.61,1.36-1.36,1.36H1.45c-.8,0-1.45-.65-1.45-1.45s.65-1.45,1.45-1.45Z"/><rect class="cls-1" x="1.8" y="4.72" width="2.91" height=".33"/><rect class="cls-1" x="1.8" y="5.33" width="2.91" height=".16"/></g></svg>