<?xml version="1.0" encoding="UTF-8"?><svg id="Layer_2" xmlns="http://www.w3.org/2000/svg" viewBox="0 0 7.03 6.89"><defs><style>.cls-1{fill:#b2e4ff;}.cls-1,.cls-2,.cls-3,.cls-4{stroke-width:0px;}.cls-2{fill:#fff;}.cls-3{fill:#1e689e;}.cls-4{fill:#fc0;}</style></defs><g id="Layer_1-2"><path class="cls-2" d="M6.44,1.65c-.59,0-1.06-.48-1.06-1.06,0-.22.07-.42.18-.59-.39.17-.67.56-.67,1.02,0,.62.5,1.12,1.12,1.12.46,0,.85-.27,1.02-.67-.17.11-.37.18-.59.18Z"/><path class="cls-3" d="M1.45,2.13s.01,0,.02,0c-.01-.06-.02-.13-.02-.2,0-.49.4-.89.89-.89.2,0,.39.07.54.18.26-.38.69-.62,1.18-.62.79,0,1.43.64,1.43,1.43,0,.11-.01.21-.04.31.63.12,1.11.67,1.11,1.33,0,.75-.61,1.36-1.36,1.36H1.45c-.8,0-1.45-.65-1.45-1.45s.65-1.45,1.45-1.45Z"/><polygon class="cls-2" points=".64 .77 .54 1.13 .64 1.49 .73 1.13 .64 .77"/><polygon class="cls-2" points=".28 1.13 .64 1.22 1 1.13 .64 1.04 .28 1.13"/><polygon class="cls-2" points="1.05 1.51 1.01 1.69 1.05 1.88 1.1 1.69 1.05 1.51"/><polygon class="cls-2" points=".87 1.69 1.05 1.74 1.24 1.69 1.05 1.64 .87 1.69"/><path class="cls-1" d="M.88,6.5s-.05,0-.07-.02c-.07-.04-.09-.12-.05-.19l.48-.83c.04-.07.12-.09.19-.05.07.04.09.12.05.19l-.48.83s-.07.07-.12.07Z"/><path class="cls-1" d="M1.52,6.89s-.05,0-.07-.02c-.07-.04-.09-.12-.05-.19l.71-1.23c.04-.07.12-.09.19-.05.07.04.09.12.05.19l-.71,1.23s-.07.07-.12.07Z"/><path class="cls-1" d="M3.63,6.5s-.05,0-.07-.02c-.07-.04-.09-.12-.05-.19l.48-.83c.04-.07.12-.09.19-.05.07.04.09.12.05.19l-.48.83s-.07.07-.12.07Z"/><path class="cls-1" d="M4.44,6.69s-.05,0-.07-.02c-.07-.04-.09-.12-.05-.19l.59-1.02c.04-.07.12-.09.19-.05.07.04.09.12.05.19l-.59,1.02s-.07.07-.12.07Z"/><polygon class="cls-4" points="3.74 3.24 2.46 5.08 2.99 5.08 2.63 6.61 4.09 4.48 3.49 4.48 3.74 3.24"/></g></svg>