<?xml version="1.0" encoding="UTF-8"?><svg id="Layer_2" xmlns="http://www.w3.org/2000/svg" viewBox="0 0 8.01 5.37"><defs><style>.cls-1{fill:#fff;}.cls-1,.cls-2{stroke-width:0px;}.cls-2{fill:#fc0;}</style></defs><g id="Layer_1-2"><path class="cls-2" d="M3.39,2.2c0,.66-.53,1.19-1.19,1.19s-1.19-.53-1.19-1.19.53-1.19,1.19-1.19,1.19.53,1.19,1.19Z"/><path class="cls-2" d="M2.2.82c-.07,0-.13-.06-.13-.13V.13c0-.07.06-.13.13-.13s.13.06.13.13v.56c0,.07-.06.13-.13.13Z"/><path class="cls-2" d="M1.13,1.26s-.07-.01-.09-.04l-.4-.4s-.05-.13,0-.18c.05-.05.13-.05.18,0l.4.4s.05.13,0,.18c-.03.02-.06.04-.09.04Z"/><path class="cls-2" d="M.69,2.33H.13c-.07,0-.13-.06-.13-.13s.06-.13.13-.13h.56c.07,0,.13.06.13.13s-.06.13-.13.13Z"/><path class="cls-2" d="M.74,3.8s-.07-.01-.09-.04c-.05-.05-.05-.13,0-.18l.4-.4c.05-.05.13-.05.18,0,.05.05.05.13,0,.18l-.4.4s-.06.04-.09.04Z"/><path class="cls-2" d="M2.2,4.4c-.07,0-.13-.06-.13-.13v-.56c0-.07.06-.13.13-.13s.13.06.13.13v.56c0,.07-.06.13-.13.13Z"/><path class="cls-2" d="M3.67,3.8s-.07-.01-.09-.04l-.4-.4s-.05-.13,0-.18c.05-.05.13-.05.18,0l.4.4c.05.05.05.13,0,.18-.02.03-.06.04-.09.04Z"/><path class="cls-2" d="M4.28,2.33h-.56c-.07,0-.13-.06-.13-.13s.06-.13.13-.13h.56c.07,0,.13.06.13.13s-.06.13-.13.13Z"/><path class="cls-2" d="M3.27,1.26s-.07-.01-.09-.04c-.05-.05-.05-.13,0-.18l.4-.4c.05-.05.13-.05.18,0,.05.05.05.13,0,.18l-.4.4s-.06.04-.09.04Z"/><path class="cls-1" d="M2.91,2.47s.01,0,.02,0c-.01-.06-.02-.13-.02-.2,0-.49.4-.89.89-.89.2,0,.39.07.54.18.26-.38.69-.62,1.18-.62.79,0,1.43.64,1.43,1.43,0,.11-.01.21-.04.31.63.12,1.11.67,1.11,1.33,0,.75-.61,1.36-1.36,1.36h-3.75c-.8,0-1.45-.65-1.45-1.45s.65-1.45,1.45-1.45Z"/></g></svg>