<?xml version="1.0" encoding="UTF-8"?><svg id="Layer_2" xmlns="http://www.w3.org/2000/svg" viewBox="0 0 6.56 6.29"><defs><style>.cls-1{fill:#b2e4ff;}.cls-1,.cls-2{stroke-width:0px;}.cls-2{fill:#fff;}</style></defs><g id="Layer_1-2"><path class="cls-1" d="M.85,5.9s-.05,0-.07-.02c-.07-.04-.09-.12-.05-.19l.48-.83c.04-.07.12-.09.19-.05.07.04.09.12.05.19l-.48.83s-.07.07-.12.07Z"/><path class="cls-1" d="M1.49,6.29s-.05,0-.07-.02c-.07-.04-.09-.12-.05-.19l.71-1.23c.04-.07.12-.09.19-.05.07.04.09.12.05.19l-.71,1.23s-.07.07-.12.07Z"/><path class="cls-1" d="M3.6,5.9s-.05,0-.07-.02c-.07-.04-.09-.12-.05-.19l.48-.83c.04-.07.12-.09.19-.05.07.04.09.12.05.19l-.48.83s-.07.07-.12.07Z"/><path class="cls-1" d="M4.42,6.09s-.05,0-.07-.02c-.07-.04-.09-.12-.05-.19l.59-1.02c.04-.07.12-.09.19-.05.07.04.09.12.05.19l-.59,1.02s-.07.07-.12.07Z"/><path class="cls-1" d="M2.55,6.09s-.05,0-.07-.02c-.07-.04-.09-.12-.05-.19l.59-1.02c.04-.07.12-.09.19-.05.07.04.09.12.05.19l-.59,1.02s-.07.07-.12.07Z"/><path class="cls-2" d="M1.45,1.53s.01,0,.02,0c-.01-.06-.02-.13-.02-.2,0-.49.4-.89.89-.89.2,0,.39.07.54.18.26-.38.69-.62,1.18-.62.79,0,1.43.64,1.43,1.43,0,.11-.01.21-.04.31.63.12,1.11.67,1.11,1.33,0,.75-.61,1.36-1.36,1.36H1.45c-.8,0-1.45-.65-1.45-1.45s.65-1.45,1.45-1.45Z"/></g></svg>