<?xml version="1.0" encoding="UTF-8"?><svg id="Layer_2" xmlns="http://www.w3.org/2000/svg" viewBox="0 0 4.51 4.45"><defs><style>.cls-1{fill:#fff;stroke-width:0px;}</style></defs><g id="Layer_1-2"><path class="cls-1" d="M2.34,3.6c.04-.07.02-.16-.05-.2h0s.03-.06.03-.06c.04-.07.02-.16-.05-.2-.02-.01-.05-.02-.07-.02-.05,0-.1.03-.13.07l-.03.06-.53-.31.53-.31.03.06s.08.07.13.07c.03,0,.05,0,.07-.02.07-.04.1-.13.05-.2l-.03-.06h0c.07-.04.1-.13.05-.21-.03-.05-.08-.07-.13-.07-.03,0-.05,0-.07.02h0s-.03-.06-.03-.06c-.03-.05-.08-.07-.13-.07-.03,0-.05,0-.07.02-.07.04-.1.13-.05.2l.03.06-.53.31v-.64h.07c.08,0,.15-.07.15-.15s-.07-.15-.15-.15h-.07c0-.09-.07-.15-.15-.15s-.15.07-.15.15h0s-.07,0-.07,0c-.08,0-.15.07-.15.15s.07.15.15.15h.07v.64l-.56-.32.03-.06c.04-.07.02-.16-.05-.2-.02-.01-.05-.02-.07-.02-.05,0-.1.03-.13.07l-.03.06h0s-.05-.02-.07-.02c-.05,0-.1.03-.13.07-.04.07-.02.16.05.2h0s-.03.06-.03.06c-.04.07-.02.16.05.2.02.01.05.02.07.02.05,0,.1-.03.13-.07l.03-.06.56.32-.56.32-.03-.06s-.08-.07-.13-.07c-.03,0-.05,0-.07.02-.07.04-.1.13-.05.2l.03.06h0c-.07.04-.1.14-.05.21.03.05.08.07.13.07.03,0,.05,0,.07-.02h0s.03.05.03.05c.03.05.08.07.13.07.03,0,.05,0,.08-.02.07-.04.1-.13.05-.2l-.03-.06.56-.32v.61h-.07c-.08,0-.15.07-.15.15s.07.15.15.15h.07c0,.09.07.15.15.15s.15-.07.15-.15h0s.07,0,.07,0c.08,0,.15-.07.15-.15s-.07-.15-.15-.15h-.07v-.61l.53.31-.03.06c-.04.07-.02.16.05.2.02.01.05.02.07.02.05,0,.1-.03.13-.07l.03-.06h0s.05.02.07.02c.05,0,.1-.03.13-.07Z"/><path class="cls-1" d="M4.26,1.01s-.02,0-.02,0h-.01s-.01-.06-.01-.06c0-.05-.05-.09-.1-.09,0,0-.01,0-.02,0-.06.01-.1.07-.08.12v.06s-.47.1-.47.1l.17-.49.06.02s.02,0,.03,0h0s.09-.03.1-.07c.02-.06-.01-.12-.07-.13l-.06-.02h0c.02-.07-.01-.13-.07-.15-.01,0-.02,0-.03,0-.04,0-.09.03-.1.07h0s-.06,0-.06,0c-.01,0-.02,0-.04,0-.04,0-.08.03-.1.07-.02.06.01.12.07.13l.06.02-.17.49-.34-.39.04-.04s.05-.11,0-.15c-.02-.02-.05-.04-.08-.04-.03,0-.05,0-.07.03l-.04.04h0s-.05-.05-.08-.05c-.03,0-.05,0-.07.03-.04.04-.05.11,0,.15h0s-.05.05-.05.05c-.04.04-.05.11,0,.15.02.02.05.03.08.04h0s.05,0,.07-.03l.04-.04.34.39-.51.1v-.06s-.06-.09-.11-.09c0,0-.02,0-.02,0-.06.01-.09.07-.08.12v.06s0,0,0,0c-.06.01-.1.07-.08.13,0,.05.05.08.1.09h0s.01,0,.02,0h.01s.01.06.01.06c0,.05.05.08.1.09h0s.01,0,.02,0c.06-.01.09-.07.08-.12v-.06s.5-.1.5-.1l-.16.47-.06-.02s-.02,0-.04,0c-.04,0-.08.03-.1.07-.02.06.01.12.07.13l.06.02h0c-.02.07.01.13.07.15,0,0,.02,0,.03,0h0s.09-.03.1-.07h0s.06,0,.06,0c0,0,.02,0,.03,0h0s.09-.03.1-.07c.02-.06-.01-.12-.07-.13l-.06-.02.16-.47.33.37-.04.04s-.05.11,0,.15c.02.02.05.03.08.04,0,0,0,0,0,0,.03,0,.05,0,.07-.03l.04-.04h0s.05.04.07.05h0s.05,0,.07-.03c.04-.04.05-.11,0-.15h0s.04-.05.04-.05c.04-.04.05-.11,0-.15-.02-.02-.05-.04-.08-.04-.03,0-.05,0-.07.03l-.05.04-.33-.37.49-.1v.06s.06.08.11.09h0s.01,0,.02,0c.06-.01.09-.07.08-.12v-.06s0,0,0,0c.06-.01.09-.07.08-.12,0-.05-.05-.09-.1-.09Z"/><path class="cls-1" d="M4.03,2.9h-.06v-.06s-.04-.09-.09-.09-.09.04-.09.09v.06h-.06s-.09.04-.09.09.04.09.09.09h.06v.06s.04.09.09.09.09-.04.09-.09v-.06h.06s.09-.04.09-.09-.04-.09-.09-.09Z"/><path class="cls-1" d="M1.84.14h-.06v-.06s-.04-.09-.09-.09-.09.04-.09.09v.06h-.06s-.09.04-.09.09.04.09.09.09h.06v.06s.04.09.09.09.09-.04.09-.09v-.06h.06s.09-.04.09-.09-.04-.09-.09-.09Z"/><path class="cls-1" d="M.52.79h-.06v-.06s-.04-.09-.09-.09-.09.04-.09.09v.06h-.06s-.09.04-.09.09.04.09.09.09h.06v.06s.04.09.09.09.09-.04.09-.09v-.06h.06s.09-.04.09-.09-.04-.09-.09-.09Z"/><path class="cls-1" d="M3.15,4.13h-.06v-.06s-.04-.09-.09-.09-.09.04-.09.09v.06h-.06s-.09.04-.09.09.04.09.09.09h.06v.06s.04.09.09.09.09-.04.09-.09v-.06h.06s.09-.04.09-.09-.04-.09-.09-.09Z"/><path class="cls-1" d="M4.43,3.9h-.06v-.06s-.04-.09-.09-.09-.09.04-.09.09v.06h-.06s-.09.04-.09.09.04.09.09.09h.06v.06s.04.09.09.09.09-.04.09-.09v-.06h.06s.09-.04.09-.09-.04-.09-.09-.09Z"/></g></svg>