<?xml version="1.0" encoding="UTF-8"?><svg id="Layer_2" xmlns="http://www.w3.org/2000/svg" viewBox="0 0 7.36 6.03"><defs><style>.cls-1{fill:#fff;}.cls-1,.cls-2{stroke-width:0px;}.cls-2{fill:#fc0;}</style></defs><g id="Layer_1-2"><path class="cls-2" d="M3.68,1.69c-1.1,0-1.99.89-1.99,1.99h3.99c0-1.1-.89-1.99-1.99-1.99Z"/><path class="cls-2" d="M3.68,1.37c-.12,0-.21-.1-.21-.21V.21c0-.12.1-.21.21-.21s.21.1.21.21v.94c0,.12-.1.21-.21.21Z"/><path class="cls-2" d="M1.89,2.11c-.05,0-.11-.02-.15-.06l-.66-.66c-.08-.08-.08-.22,0-.3.08-.08.22-.08.3,0l.66.66c.08.08.08.22,0,.3-.04.04-.1.06-.15.06Z"/><path class="cls-2" d="M5.47,2.11c-.05,0-.11-.02-.15-.06-.08-.08-.08-.22,0-.3l.66-.66c.08-.08.22-.08.3,0,.08.08.08.22,0,.3l-.66.66s-.1.06-.15.06Z"/><path class="cls-1" d="M7.15,3.9H.21c-.12,0-.21-.1-.21-.21s.1-.21.21-.21h6.94c.12,0,.21.1.21.21s-.1.21-.21.21Z"/><path class="cls-1" d="M3.68,6.03c-.12,0-.21-.1-.21-.21v-1.3c0-.12.1-.21.21-.21s.21.1.21.21v1.3c0,.12-.1.21-.21.21Z"/><path class="cls-1" d="M3.68,6.03c-.05,0-.11-.02-.15-.06-.08-.08-.08-.22,0-.3l.46-.46c.08-.08.22-.08.3,0s.08.22,0,.3l-.46.46s-.1.06-.15.06Z"/><path class="cls-1" d="M3.68,6.03c-.05,0-.11-.02-.15-.06-.08-.08-.08-.22,0-.3l.46-.46c.08-.08.22-.08.3,0s.08.22,0,.3l-.46.46s-.1.06-.15.06Z"/><path class="cls-1" d="M3.68,6.03c-.05,0-.11-.02-.15-.06l-.46-.46c-.08-.08-.08-.22,0-.3.08-.08.22-.08.3,0l.46.46c.08.08.08.22,0,.3-.04.04-.1.06-.15.06Z"/></g></svg>