<?xml version="1.0" encoding="UTF-8"?><svg id="Layer_2" xmlns="http://www.w3.org/2000/svg" viewBox="0 0 5 5"><defs><style>.cls-1{fill:#fc0;stroke-width:0px;}</style></defs><g id="Layer_1-2"><path class="cls-1" d="M3.85,2.5c0,.75-.61,1.35-1.35,1.35s-1.35-.61-1.35-1.35.61-1.35,1.35-1.35,1.35.61,1.35,1.35Z"/><path class="cls-1" d="M2.5.93c-.08,0-.15-.06-.15-.15V.15c0-.08.07-.15.15-.15s.15.06.15.15v.64c0,.08-.07.15-.15.15Z"/><path class="cls-1" d="M1.28,1.43s-.07-.01-.1-.04l-.45-.45c-.06-.06-.06-.15,0-.21.06-.06.15-.06.21,0l.45.45c.06.06.06.15,0,.2-.03.03-.07.04-.1.04Z"/><path class="cls-1" d="M.78,2.64H.14c-.08,0-.14-.06-.14-.15s.06-.15.14-.15h.64c.08,0,.14.06.14.15s-.06.15-.14.15Z"/><path class="cls-1" d="M.83,4.31s-.07-.01-.1-.04c-.06-.06-.06-.15,0-.21l.45-.45c.06-.06.15-.06.21,0,.06.06.06.15,0,.21l-.45.45s-.07.04-.1.04Z"/><path class="cls-1" d="M2.5,5c-.08,0-.15-.06-.15-.14v-.64c0-.08.07-.15.15-.15s.15.06.15.15v.64c0,.08-.07.14-.15.14Z"/><path class="cls-1" d="M4.16,4.31s-.08-.01-.1-.04l-.45-.45c-.06-.06-.06-.15,0-.21s.15-.06.21,0l.45.45c.06.06.06.15,0,.21-.03.03-.07.04-.1.04Z"/><path class="cls-1" d="M4.85,2.64h-.64c-.08,0-.15-.06-.15-.15s.07-.15.15-.15h.64c.08,0,.15.06.15.15s-.06.15-.15.15Z"/><path class="cls-1" d="M3.71,1.43s-.07-.01-.1-.04c-.06-.06-.06-.15,0-.2l.45-.45c.06-.06.15-.06.21,0,.06.06.06.15,0,.21l-.45.45s-.07.04-.1.04Z"/></g></svg>