<?xml version="1.0" encoding="UTF-8"?><svg id="Layer_2" xmlns="http://www.w3.org/2000/svg" viewBox="0 0 6.56 6.01"><defs><style>.cls-1{fill:#fff;}.cls-1,.cls-2{stroke-width:0px;}.cls-2{fill:#fc0;}</style></defs><g id="Layer_1-2"><path class="cls-1" d="M1.45,1.53s.01,0,.02,0c-.01-.06-.02-.13-.02-.2,0-.49.4-.89.89-.89.2,0,.39.07.54.18.26-.38.69-.62,1.18-.62.79,0,1.43.64,1.43,1.43,0,.11-.01.21-.04.31.63.12,1.11.67,1.11,1.33,0,.75-.61,1.36-1.36,1.36H1.45c-.8,0-1.45-.65-1.45-1.45s.65-1.45,1.45-1.45Z"/><polygon class="cls-2" points="3.73 2.64 2.46 4.48 2.98 4.48 2.62 6.01 4.09 3.88 3.48 3.88 3.73 2.64"/></g></svg>