<?xml version="1.0" encoding="UTF-8"?><svg id="Layer_2" xmlns="http://www.w3.org/2000/svg" viewBox="0 0 6.36 4.95"><defs><style>.cls-1{fill:#fff;stroke-width:0px;}</style></defs><g id="Layer_1-2"><path class="cls-1" d="M3.99,4.95c-.67,0-1.01-.53-1.1-.85-.03-.1.03-.2.12-.23.1-.03.2.03.23.12.02.07.22.7.94.56.3-.06.52-.25.6-.51.07-.24,0-.49-.15-.65-.22-.21-.58-.24-1.03-.08-1.14.39-1.81.27-2.41.16-.33-.06-.64-.11-1.01-.08-.1,0-.19-.07-.2-.17,0-.1.07-.19.17-.2.42-.03.76.03,1.1.09.58.1,1.18.21,2.23-.15.78-.27,1.21-.01,1.4.16.26.25.36.64.25,1.01-.12.4-.45.68-.88.77-.09.02-.18.03-.27.03Z"/><path class="cls-1" d="M2.32,2.81c-.32,0-.54-.06-.74-.12-.3-.09-.62-.18-1.38-.1-.09.01-.19-.06-.2-.16,0-.1.06-.19.16-.2.83-.08,1.19.02,1.51.12.24.07.44.13.83.1.36-.03.62-.1.87-.17.47-.13.91-.25,1.75,0,.22.07.46.02.63-.13.2-.17.28-.45.22-.79-.06-.36-.36-.5-.6-.52-.29-.02-.68.15-.84.66-.03.1-.13.15-.23.12-.1-.03-.15-.13-.12-.23.22-.72.79-.94,1.21-.92.48.03.86.36.94.82.08.45-.04.86-.34,1.12-.27.23-.64.31-.98.21-.74-.23-1.09-.13-1.55,0-.26.07-.55.15-.94.18-.08,0-.15,0-.21,0Z"/><path class="cls-1" d="M2.58,2c-.06,0-.13,0-.2,0-.25-.02-.44-.07-.63-.11-.39-.09-.77-.18-1.54-.04-.1.02-.19-.05-.21-.15-.02-.1.05-.19.15-.21.85-.15,1.27-.05,1.69.05.19.04.36.08.58.11.33.03.92,0,1.2-.6.09-.19.08-.37-.01-.49-.1-.13-.28-.19-.46-.16-.25.04-.46.26-.57.59-.03.1-.13.15-.23.12-.1-.03-.15-.13-.12-.23.15-.47.47-.77.86-.84.31-.05.63.07.81.3.18.24.2.55.05.87-.25.53-.74.82-1.36.82Z"/></g></svg>